<svg xmlns="http://www.w3.org/2000/svg" viewBox="0 0 400 300" width="406" height="306" class="illustration styles_illustrationTablet__1DWOa"><g id="_332_online_shopping_flatline" data-name="#332_online_shopping_flatline"><path d="M308.29,256.64c0,2.38-20,4.3-49.31,4.3S142.69,259.37,142.69,257s83.34-4.64,112.61-4.64S308.29,254.27,308.29,256.64Z" fill="#d1d3d4"></path><path d="M142.69,257h104.1a6.57,6.57,0,0,0,6.63-7L243,51.42a7.46,7.46,0,0,0-7.37-7H131.5a6.56,6.56,0,0,0-6.62,7L135.33,250A7.45,7.45,0,0,0,142.69,257Z" fill="#231f20"></path><path d="M246.79,257.43H142.69a7.9,7.9,0,0,1-7.8-7.41L124.44,51.44A7,7,0,0,1,131.5,44H235.6a7.92,7.92,0,0,1,7.81,7.41L253.86,250a7,7,0,0,1-7.07,7.45ZM131.5,44.86a6.13,6.13,0,0,0-6.18,6.53L135.77,250a7,7,0,0,0,6.92,6.57h104.1a6.17,6.17,0,0,0,4.52-1.9A6.24,6.24,0,0,0,253,250L242.53,51.44a7,7,0,0,0-6.93-6.58Z" fill="#231f20"></path><path d="M150.38,256.64H254.49a6.57,6.57,0,0,0,6.62-7L250.66,51.06a7.45,7.45,0,0,0-7.36-7H139.2a6.57,6.57,0,0,0-6.63,7L143,249.65A7.45,7.45,0,0,0,150.38,256.64Z" fill="#fff"></path><path d="M254.49,257.14H150.38a8,8,0,0,1-7.86-7.47L132.07,51.09a7.07,7.07,0,0,1,7.13-7.52H243.3A8,8,0,0,1,251.16,51l10.45,198.58a7.07,7.07,0,0,1-7.12,7.52ZM139.2,44.57A6.08,6.08,0,0,0,133.07,51l10.45,198.58a7,7,0,0,0,6.86,6.52H254.49a6.06,6.06,0,0,0,6.12-6.47L250.16,51.09a7,7,0,0,0-6.86-6.52Z" fill="#231f20"></path><path d="M246.6,244.16H157.08a6.43,6.43,0,0,1-6.34-6l-9.2-174.79a5.72,5.72,0,0,1,5.76-6.08h89.51a6.44,6.44,0,0,1,6.35,6l9.19,174.79a5.7,5.7,0,0,1-5.75,6.08ZM147.3,58.26a4.7,4.7,0,0,0-3.47,1.47,4.76,4.76,0,0,0-1.29,3.56l9.2,174.79a5.41,5.41,0,0,0,5.34,5.08H246.6a4.73,4.73,0,0,0,4.76-5l-9.2-174.79a5.43,5.43,0,0,0-5.35-5.08Z" fill="#d1d3d4"></path><path d="M208.88,52H189.32a.5.5,0,0,1,0-1h19.56a.5.5,0,0,1,0,1Z" fill="#d1d3d4"></path><path d="M186.42,52H183a.5.5,0,0,1,0-1h3.42a.5.5,0,0,1,0,1Z" fill="#d1d3d4"></path><path d="M130.48,91.86a.5.5,0,0,1-.5-.47L128.9,70.86a.51.51,0,0,1,.48-.53.5.5,0,0,1,.52.48L131,91.34a.49.49,0,0,1-.47.52Z" fill="#d1d3d4"></path><polygon points="170.25 78.66 159.19 78.66 141.19 57.1 152.24 57.1 170.25 78.66" fill="#fff"></polygon><path d="M170.25,79.11H159.19a.48.48,0,0,1-.35-.16l-18-21.56a.44.44,0,0,1-.06-.48.45.45,0,0,1,.41-.27h11.05a.43.43,0,0,1,.35.17l18,21.55a.46.46,0,0,1,.06.49A.45.45,0,0,1,170.25,79.11Zm-10.84-.91h9.86L152,57.56h-9.86Z" fill="#231f20"></path><path d="M170.25,78.66H159.19l.36,5.48a5.4,5.4,0,0,0,5.3,5H166a4.59,4.59,0,0,0,4.64-5Z" fill="#fff"></path><path d="M166,89.57h-1.12a5.86,5.86,0,0,1-5.75-5.4l-.36-5.48a.45.45,0,0,1,.45-.49h11.06a.45.45,0,0,1,.45.43l.37,5.48a5.06,5.06,0,0,1-5.1,5.46Zm-6.29-10.46.33,5a4.94,4.94,0,0,0,4.84,4.55H166a4.14,4.14,0,0,0,4.18-4.49l-.33-5.06Z" fill="#231f20"></path><polygon points="181.3 78.66 170.25 78.66 152.24 57.1 163.29 57.1 181.3 78.66" fill="#008080"></polygon><path d="M181.3,79.11H170.25a.45.45,0,0,1-.35-.16l-18-21.56a.44.44,0,0,1-.06-.48.45.45,0,0,1,.41-.27h11a.43.43,0,0,1,.35.17l18,21.55a.45.45,0,0,1-.35.75Zm-10.84-.91h9.86L163.08,57.56h-9.86Z" fill="#231f20"></path><path d="M181.3,78.66H170.25l.36,5.48a5.38,5.38,0,0,0,5.3,5H177a4.59,4.59,0,0,0,4.64-5Z" fill="#008080"></path><path d="M177,89.57h-1.12a5.86,5.86,0,0,1-5.76-5.4l-.36-5.48a.5.5,0,0,1,.12-.35.48.48,0,0,1,.34-.14H181.3a.47.47,0,0,1,.46.43l.36,5.48A5.06,5.06,0,0,1,177,89.57Zm-6.3-10.46.34,5a4.92,4.92,0,0,0,4.84,4.55H177a4.14,4.14,0,0,0,4.18-4.49l-.34-5.06Z" fill="#231f20"></path><polygon points="192.36 78.66 181.3 78.66 163.29 57.1 174.34 57.1 192.36 78.66" fill="#fff"></polygon><path d="M192.36,79.11H181.3A.48.48,0,0,1,181,79l-18-21.56a.44.44,0,0,1-.06-.48.46.46,0,0,1,.41-.27h11.05a.46.46,0,0,1,.36.17l18,21.55a.46.46,0,0,1,.06.49A.45.45,0,0,1,192.36,79.11Zm-10.84-.91h9.86L174.13,57.56h-9.86Z" fill="#231f20"></path><path d="M192.36,78.66H181.3l.37,5.48a5.38,5.38,0,0,0,5.29,5h1.12a4.59,4.59,0,0,0,4.64-5Z" fill="#fff"></path><path d="M188.08,89.57H187a5.86,5.86,0,0,1-5.75-5.4l-.36-5.48a.45.45,0,0,1,.45-.49h11.06a.45.45,0,0,1,.45.43l.37,5.48a5.06,5.06,0,0,1-5.1,5.46Zm-6.29-10.46.33,5A4.94,4.94,0,0,0,187,88.66h1.12a4.15,4.15,0,0,0,4.19-4.49l-.34-5.06Z" fill="#231f20"></path><polygon points="203.41 78.66 192.36 78.66 174.34 57.1 185.4 57.1 203.41 78.66" fill="#008080"></polygon><path d="M203.41,79.11h-11A.45.45,0,0,1,192,79L174,57.39a.46.46,0,0,1-.06-.48.47.47,0,0,1,.41-.27H185.4a.46.46,0,0,1,.35.17l18,21.55a.45.45,0,0,1-.35.75Zm-10.84-.91h9.86L185.18,57.56h-9.86Z" fill="#231f20"></path><path d="M203.41,78.66h-11l.36,5.48a5.39,5.39,0,0,0,5.3,5h1.12a4.59,4.59,0,0,0,4.64-5Z" fill="#008080"></path><path d="M199.14,89.57H198a5.85,5.85,0,0,1-5.75-5.4l-.37-5.48a.5.5,0,0,1,.12-.35.48.48,0,0,1,.34-.14h11a.47.47,0,0,1,.46.43l.36,5.48a5,5,0,0,1-5.09,5.46Zm-6.3-10.46.34,5A4.93,4.93,0,0,0,198,88.66h1.12a4.14,4.14,0,0,0,4.18-4.49L203,79.11Z" fill="#231f20"></path><polygon points="214.47 78.66 203.41 78.66 185.4 57.1 196.45 57.1 214.47 78.66" fill="#fff"></polygon><path d="M214.47,79.11H203.41a.48.48,0,0,1-.35-.16l-18-21.56a.44.44,0,0,1-.07-.48.48.48,0,0,1,.42-.27h11a.46.46,0,0,1,.35.17l18,21.55a.46.46,0,0,1,.06.49A.45.45,0,0,1,214.47,79.11Zm-10.85-.91h9.87L196.23,57.56h-9.86Z" fill="#231f20"></path><path d="M214.47,78.66H203.41l.37,5.48a5.38,5.38,0,0,0,5.3,5h1.12a4.58,4.58,0,0,0,4.63-5Z" fill="#fff"></path><path d="M210.2,89.57h-1.12a5.86,5.86,0,0,1-5.76-5.4L203,78.69a.46.46,0,0,1,.12-.35.44.44,0,0,1,.33-.14h11.06a.45.45,0,0,1,.45.43l.37,5.48a5.06,5.06,0,0,1-5.09,5.46Zm-6.3-10.46.33,5a4.94,4.94,0,0,0,4.85,4.55h1.12a4.15,4.15,0,0,0,4.18-4.49L214,79.11Z" fill="#231f20"></path><polygon points="225.52 78.66 214.47 78.66 196.45 57.1 207.5 57.1 225.52 78.66" fill="#008080"></polygon><path d="M225.52,79.11H214.47a.45.45,0,0,1-.35-.16l-18-21.56a.44.44,0,0,1-.07-.48.48.48,0,0,1,.42-.27H207.5a.46.46,0,0,1,.35.17l18,21.55a.45.45,0,0,1-.35.75Zm-10.84-.91h9.86L207.29,57.56h-9.87Z" fill="#231f20"></path><path d="M225.52,78.66H214.47l.36,5.48a5.4,5.4,0,0,0,5.3,5h1.12a4.59,4.59,0,0,0,4.64-5Z" fill="#008080"></path><path d="M221.25,89.57h-1.12a5.86,5.86,0,0,1-5.75-5.4L214,78.69a.5.5,0,0,1,.12-.35.48.48,0,0,1,.34-.14h11.05a.47.47,0,0,1,.46.43l.37,5.48A5.13,5.13,0,0,1,225,88,5.06,5.06,0,0,1,221.25,89.57ZM215,79.11l.34,5a4.94,4.94,0,0,0,4.84,4.55h1.12a4.14,4.14,0,0,0,4.18-4.49l-.34-5.06Z" fill="#231f20"></path><polygon points="236.58 78.66 225.52 78.66 207.5 57.1 218.55 57.1 236.58 78.66" fill="#fff"></polygon><path d="M236.58,79.11H225.52a.48.48,0,0,1-.35-.16l-18-21.56a.44.44,0,0,1-.07-.48.48.48,0,0,1,.42-.27h11.05a.44.44,0,0,1,.35.17l18,21.55a.48.48,0,0,1,.06.49A.46.46,0,0,1,236.58,79.11Zm-10.85-.91h9.87L218.34,57.56h-9.86Z" fill="#231f20"></path><path d="M236.58,78.66H225.52l.37,5.48a5.39,5.39,0,0,0,5.3,5h1.12a4.58,4.58,0,0,0,4.63-5Z" fill="#fff"></path><path d="M232.31,89.57h-1.12a5.87,5.87,0,0,1-5.76-5.4l-.37-5.48a.51.51,0,0,1,.13-.35.44.44,0,0,1,.33-.14h11.06a.45.45,0,0,1,.45.43l.37,5.48a5,5,0,0,1-5.09,5.46ZM226,79.11l.34,5a4.93,4.93,0,0,0,4.84,4.55h1.12a4.14,4.14,0,0,0,4.18-4.49l-.34-5.06Z" fill="#231f20"></path><polygon points="247.63 78.66 236.58 78.66 218.55 57.1 229.6 57.1 247.63 78.66" fill="#008080"></polygon><path d="M247.63,79.11h-11a.45.45,0,0,1-.35-.16l-18-21.56a.44.44,0,0,1-.06-.48.45.45,0,0,1,.41-.27h11a.44.44,0,0,1,.35.17l18,21.55a.46.46,0,0,1-.35.75Zm-10.84-.91h9.86L229.39,57.56h-9.86Z" fill="#231f20"></path><path d="M247.63,78.66h-11l.36,5.48a5.4,5.4,0,0,0,5.31,5h1.12a4.58,4.58,0,0,0,4.63-5Z" fill="#008080"></path><path d="M243.37,89.57h-1.12a5.86,5.86,0,0,1-5.76-5.4l-.37-5.48a.5.5,0,0,1,.12-.35.48.48,0,0,1,.34-.14h11a.47.47,0,0,1,.46.43l.37,5.48a5.06,5.06,0,0,1-5.09,5.46Zm-6.31-10.46.34,5a4.94,4.94,0,0,0,4.85,4.55h1.12a4.14,4.14,0,0,0,4.17-4.49l-.34-5.06Z" fill="#231f20"></path><polygon points="258.69 78.66 247.63 78.66 229.6 57.1 240.65 57.1 258.69 78.66" fill="#fff"></polygon><path d="M258.69,79.11H247.63a.48.48,0,0,1-.35-.16l-18-21.56a.44.44,0,0,1-.06-.48.45.45,0,0,1,.41-.27h11.05a.43.43,0,0,1,.35.17l18,21.55a.48.48,0,0,1,.06.49A.46.46,0,0,1,258.69,79.11Zm-10.85-.91h9.87L240.44,57.56h-9.86Z" fill="#231f20"></path><path d="M258.69,78.66H247.63l.37,5.48a5.4,5.4,0,0,0,5.3,5h1.12a4.59,4.59,0,0,0,4.64-5Z" fill="#fff"></path><path d="M254.42,89.57H253.3a5.88,5.88,0,0,1-5.76-5.4l-.36-5.48a.46.46,0,0,1,.12-.35.44.44,0,0,1,.33-.14h11.06a.46.46,0,0,1,.45.43l.37,5.48a5,5,0,0,1-5.09,5.46Zm-6.3-10.46.34,5a4.93,4.93,0,0,0,4.84,4.55h1.12a4.14,4.14,0,0,0,4.18-4.49l-.34-5.06Z" fill="#231f20"></path><polygon points="141.19 57.1 142.61 78.66 159.19 78.66 141.19 57.1" fill="#231f20"></polygon><path d="M159.19,79.1H142.61a.45.45,0,0,1-.44-.41l-1.42-21.56a.45.45,0,0,1,.28-.44.44.44,0,0,1,.5.13l18,21.55a.45.45,0,0,1,.06.47A.44.44,0,0,1,159.19,79.1ZM143,78.22h15.23l-16.53-19.8Z" fill="#231f20"></path><path d="M313.64,130.9a.59.59,0,0,1-.25-.07.52.52,0,0,1-.25-.48c-.11-1.31-2.87-10.91-5.4-10.76a1,1,0,0,0-.76.41c-1.47,1.71-1.23,7.67-1,9.82a.51.51,0,0,1-.45.55.5.5,0,0,1-.55-.45c0-.33-.8-8.19,1.25-10.57a2,2,0,0,1,1.46-.76c1.05-.06,2.1.75,3.11,2.38,1.74,2.83,3.63,9.07,3.29,9.67A.5.5,0,0,1,313.64,130.9Z" fill="#231f20"></path><line x1="306.31" y1="132.99" x2="309.55" y2="161.17" fill="#fff"></line><path d="M309.55,161.67a.51.51,0,0,1-.5-.45l-3.24-28.17a.5.5,0,0,1,1-.12L310,161.11a.49.49,0,0,1-.44.55Z" fill="#d1d3d4"></path><path d="M294.51,164.59c-.19-.41,1.51-33.27,1.51-33.27l19.55,2.35,4.3,30.35Z" fill="#fff"></path><path d="M294.51,165.09a.51.51,0,0,1-.45-.29c-.07-.15-.24-.53,1.46-33.51a.5.5,0,0,1,.18-.36.47.47,0,0,1,.38-.11l19.55,2.35a.51.51,0,0,1,.44.43l4.3,30.35a.47.47,0,0,1-.12.39.51.51,0,0,1-.37.18l-25.36.57Zm2-33.21c-.61,12-1.46,29.19-1.49,32.19l24.3-.54-4.17-29.41Z" fill="#d1d3d4"></path><polygon points="296.02 131.32 298.82 127.79 320.52 128.25 315.57 133.67 296.02 131.32" fill="#d1d3d4"></polygon><path d="M315.57,134.17h-.06L296,131.81a.5.5,0,0,1-.4-.3.52.52,0,0,1,.07-.51l2.8-3.52a.48.48,0,0,1,.4-.19l21.7.46a.53.53,0,0,1,.45.31.51.51,0,0,1-.09.53L315.94,134A.51.51,0,0,1,315.57,134.17ZM297,130.93l18.41,2.21,4-4.41-20.35-.43Z" fill="#d1d3d4"></path><polygon points="320.52 128.25 325.57 160.87 319.87 164.02 315.57 133.67 320.52 128.25" fill="#fff"></polygon><path d="M319.87,164.52a.46.46,0,0,1-.22-.06.47.47,0,0,1-.27-.37l-4.3-30.35a.48.48,0,0,1,.13-.41l4.94-5.41a.5.5,0,0,1,.51-.15.51.51,0,0,1,.35.41l5.05,32.62a.51.51,0,0,1-.25.51l-5.69,3.14A.55.55,0,0,1,319.87,164.52Zm-3.77-30.69,4.17,29.4L325,160.6l-4.84-31.24Z" fill="#d1d3d4"></path><path d="M310.05,136.54h0a.5.5,0,0,1-.47-.53c.33-5.9-.22-15.37-3.08-15.63a1.69,1.69,0,0,0-1.28.46c-2.49,2.14-3.56,10.56-3.77,13.63a.5.5,0,0,1-.53.46.49.49,0,0,1-.46-.53c0-.47.79-11.48,4.11-14.32a2.68,2.68,0,0,1,2-.69c4.75.42,4.08,15,4,16.68A.51.51,0,0,1,310.05,136.54Z" fill="#231f20"></path><path d="M308,130.85a.49.49,0,0,1-.46-.31c-.14-.34-3.51-8.52-2.09-11.73a2.2,2.2,0,0,1,1.29-1.25c1.1-.4,2.46.12,4.05,1.54,2.87,2.54,6.81,8.62,6.66,9.27a.5.5,0,0,1-1,0c-.42-1-6.52-10.9-9.39-9.86a1.2,1.2,0,0,0-.71.72c-1,2.33,1.16,8.69,2.1,10.94a.5.5,0,0,1-.28.65A.41.41,0,0,1,308,130.85Z" fill="#231f20"></path><line x1="309.93" y1="133.43" x2="322.55" y2="162.68" fill="#fff"></line><path d="M322.55,163.18a.51.51,0,0,1-.46-.3l-12.62-29.25a.5.5,0,1,1,.92-.4L323,162.48a.5.5,0,0,1-.26.66A.45.45,0,0,1,322.55,163.18Z" fill="#d1d3d4"></path><path d="M307.49,171.24c-.33-.38-9.17-36.27-9.17-36.27l21.79-3.81,14.47,31.23Z" fill="#fff"></path><path d="M307.49,171.74a.5.5,0,0,1-.37-.17c-.1-.12-.42-.47-9.29-36.48a.48.48,0,0,1,.07-.39.49.49,0,0,1,.33-.22l21.8-3.82a.5.5,0,0,1,.53.29L335,162.18a.49.49,0,0,1,0,.41.55.55,0,0,1-.3.28l-27.09,8.84A.41.41,0,0,1,307.49,171.74Zm-8.56-36.37c3.24,13.15,8,32.16,8.88,35.24l26.08-8.52-14.07-30.38Z" fill="#d1d3d4"></path><polygon points="298.32 134.97 300.19 130.27 323.67 123.72 320.11 131.16 298.32 134.97" fill="#d1d3d4"></polygon><path d="M298.32,135.47a.51.51,0,0,1-.39-.19.53.53,0,0,1-.08-.5l1.88-4.69a.46.46,0,0,1,.33-.3l23.48-6.55a.5.5,0,0,1,.51.16.49.49,0,0,1,.07.54l-3.56,7.43a.49.49,0,0,1-.36.28l-21.8,3.81Zm2.24-4.78-1.45,3.63,20.66-3.61,3-6.21Z" fill="#d1d3d4"></path><polygon points="323.67 123.72 339.68 157.17 334.58 162.39 320.11 131.16 323.67 123.72" fill="#fff"></polygon><path d="M334.58,162.89h-.08a.5.5,0,0,1-.37-.29l-14.47-31.23a.5.5,0,0,1,0-.43l3.56-7.43a.52.52,0,0,1,.9,0l16,33.44a.5.5,0,0,1-.1.57l-5.1,5.22A.51.51,0,0,1,334.58,162.89Zm-13.92-31.73,14.07,30.37,4.35-4.46-15.41-32.19Z" fill="#d1d3d4"></path><path d="M304.61,137.23a.5.5,0,0,1-.49-.39c-.12-.51-2.87-12.57-.23-16.68a2.9,2.9,0,0,1,1.9-1.38c5.2-1.06,9.19,14.79,9.63,16.6a.49.49,0,0,1-.37.6.5.5,0,0,1-.6-.36c-1.57-6.49-5.25-16.52-8.46-15.86a2,2,0,0,0-1.26.94c-2,3.12-.42,12.55.36,15.92a.49.49,0,0,1-.37.6Z" fill="#231f20"></path><path d="M260.09,136.19c-.71-2.67-.17-5.28,3.13-5.84,5-.82,10.46,2.86,15.06,4.37,1.61.53,10.26,2.63,10.26,2.63s1.34-2.43,1.75-3.37c.9-2.12,1.72-4.28,2.53-6.44,1.68-4.47,2.95-8.76,5.74-12.68a28,28,0,0,1,1.85-2.34,15.47,15.47,0,0,1,6.5-4.58.62.62,0,0,1,.48,0c.32.19.05.68-.24.92l-3.35,2.9a13.52,13.52,0,0,1,3.09-2.16c.52-.27,2.1-1.32,2.65-.77.77.77-1,1.43-1.38,1.74-.93.73-1.82,1.54-2.78,2.24a18.26,18.26,0,0,1,4-2.18c.67-.26,1.69-.32,1.85.39.1.46-.3.86-.66,1.16l-2.87,2.4c.8-.66,2.26.64,2.54,1.32a3.52,3.52,0,0,1-.52,3.34,1.69,1.69,0,0,1-.63.53.82.82,0,0,1-.79-.07c-.9-.69.08-2.37-1.37-2.76a1.26,1.26,0,0,0-1.43.85,1.72,1.72,0,0,0,.43,1.69c.33.36.83.68.82,1.17a.93.93,0,0,1-.44.71,1.58,1.58,0,0,1-2.21-.54c-.19-.37-.4-.91-.8-.81a.64.64,0,0,0-.34.27c-.5.59-2.27,10.65-2.68,14-.55,4.56-1.45,14.32-7.18,15.59a5.21,5.21,0,0,1-.55.08c-5.42.54-11-.92-16.08-2.65-4.24-1.43-9.11-2.59-12.74-5.31A11.3,11.3,0,0,1,260.09,136.19Z" fill="#fff"></path><path d="M290.17,150.46c-4.9,0-9.72-1.38-13.88-2.78-.82-.28-1.66-.55-2.51-.82-3.62-1.14-7.36-2.33-10.35-4.56a11.84,11.84,0,0,1-3.79-6h0a5.64,5.64,0,0,1,.39-4.55,4.33,4.33,0,0,1,3.12-1.85c3.63-.6,7.41,1.07,11.07,2.68,1.48.65,2.87,1.27,4.2,1.71s8.28,2.14,9.89,2.53c.37-.68,1.25-2.31,1.56-3,.92-2.16,1.75-4.36,2.53-6.42q.44-1.17.84-2.31c1.34-3.7,2.6-7.18,4.95-10.48.64-.9,1.26-1.67,1.87-2.37a15.88,15.88,0,0,1,6.71-4.72,1,1,0,0,1,.85,0,.72.72,0,0,1,.36.57,1,1,0,0,1-.05.41c.7-.32,1.46-.51,1.93,0a1,1,0,0,1,.32.84,1.27,1.27,0,0,1-.39.69,2,2,0,0,1,1.28.13,1.06,1.06,0,0,1,.57.75c.18.79-.54,1.39-.81,1.61l-1.89,1.58a3.63,3.63,0,0,1,1.69,1.61,4,4,0,0,1-.58,3.8,2.06,2.06,0,0,1-.81.67A1.26,1.26,0,0,1,308,120a2.05,2.05,0,0,1-.64-1.61c-.05-.69-.1-.94-.56-1.07a.83.83,0,0,0-.89.55,1.3,1.3,0,0,0,.33,1.24l.23.22a1.77,1.77,0,0,1,.72,1.27,1.36,1.36,0,0,1-.64,1.08,2,2,0,0,1-2.88-.71l-.08-.16a1.87,1.87,0,0,0-.25-.42s0,.09-.06.12c-.43.74-2.14,10.29-2.56,13.72l-.08.67c-.59,4.91-1.68,14-7.46,15.31-.2,0-.4.08-.6.1C291.77,150.43,291,150.46,290.17,150.46Zm-25.45-19.77a9.6,9.6,0,0,0-1.42.11,3.5,3.5,0,0,0-2.51,1.44,4.94,4.94,0,0,0-.26,3.83h0a11,11,0,0,0,3.44,5.5c2.87,2.14,6.54,3.3,10.09,4.42.85.27,1.7.54,2.52.82,4.75,1.61,10.35,3.17,15.9,2.63a4.17,4.17,0,0,0,.49-.08c5.15-1.14,6.19-9.85,6.75-14.53l.08-.67c.3-2.5,2.11-13.4,2.78-14.2a1.18,1.18,0,0,1,.58-.42c.71-.16,1.06.53,1.24.91l.07.13a1,1,0,0,0,.7.51A1,1,0,0,0,306,121a.51.51,0,0,0,.24-.35c0-.18-.2-.38-.43-.59a3.19,3.19,0,0,1-.26-.26,2.19,2.19,0,0,1-.54-2.15,1.73,1.73,0,0,1,2-1.14c1.13.3,1.2,1.26,1.25,1.89,0,.48.07.78.28.95a.35.35,0,0,0,.33,0,1.07,1.07,0,0,0,.45-.38,3.07,3.07,0,0,0,.46-2.89,2.64,2.64,0,0,0-1.42-1.19c-.27-.07-.37,0-.41,0h0a.45.45,0,0,1-.64-.06.46.46,0,0,1,.06-.64h0l2.87-2.4c.37-.31.54-.55.5-.71a.17.17,0,0,0-.1-.14,1.57,1.57,0,0,0-1.13.08,17.06,17.06,0,0,0-3.84,2.1l0,0h0a.45.45,0,0,1-.64-.11.45.45,0,0,1,.1-.63l0,0c.56-.4,1.11-.86,1.64-1.31.36-.3.72-.6,1.09-.89a5.31,5.31,0,0,1,.46-.28c.22-.13.91-.51.94-.71h0s0,0-.06-.07-.33-.15-1.79.67l-.33.18a12.82,12.82,0,0,0-2.24,1.45l-.76.65a.46.46,0,0,1-.64,0,.47.47,0,0,1,0-.64c.25-.23.51-.46.78-.67l2.59-2.24.08-.08a15,15,0,0,0-6.19,4.41,28,28,0,0,0-1.81,2.3c-2.28,3.19-3.52,6.63-4.84,10.26-.27.77-.56,1.54-.85,2.32-.78,2.07-1.62,4.28-2.54,6.46-.41,1-1.71,3.31-1.77,3.41a.45.45,0,0,1-.5.22c-.36-.09-8.69-2.11-10.31-2.64-1.37-.45-2.78-1.07-4.28-1.73C270.81,132.07,267.68,130.69,264.72,130.69Z" fill="#231f20"></path><path d="M222.38,128.29l-16.81,4.31-6.14-22.77s-1.18-5.41-2.4-6.3c-2.44-1.77-9.06-.63-10.22,2.32a3.94,3.94,0,0,0-.24,1.31,4.83,4.83,0,0,0,1.36,3.37c1.11,1.12,3.84,1,4.08,2.22.12.62-.65,1.68-.72,2.34a11.32,11.32,0,0,0,.2,2.53c.43,3.65.92,7.29,1.5,10.92a105.18,105.18,0,0,0,2.16,10.68c.5,1.84,1.09,5,2.73,6.25a1.64,1.64,0,0,0,.74.38c4.81.72,25.62-5,25.62-5" fill="#fff"></path><path d="M199.61,146.37a6.56,6.56,0,0,1-1.06-.07,2,2,0,0,1-.94-.46c-1.55-1.18-2.21-3.79-2.69-5.69q-.1-.43-.21-.81a104.1,104.1,0,0,1-2.17-10.73c-.53-3.32-1-6.9-1.5-10.94,0-.2,0-.4-.08-.6a7.66,7.66,0,0,1-.12-2,3.82,3.82,0,0,1,.38-1.14,2.83,2.83,0,0,0,.34-1.06c-.08-.43-.85-.66-1.66-.9a5.28,5.28,0,0,1-2.3-1.09,5.21,5.21,0,0,1-1.48-3.69,4,4,0,0,1,.26-1.47c.51-1.3,2-2.39,4.06-3,2.61-.76,5.43-.58,6.86.46s2.37,5.64,2.58,6.58l6,22.3,16.38-4.19a.45.45,0,0,1,.55.33.44.44,0,0,1-.33.55L205.68,133a.45.45,0,0,1-.55-.32L199,110c-.45-2-1.44-5.48-2.23-6-1.2-.87-3.75-1-6.07-.32-1.79.52-3.05,1.41-3.46,2.44a3.15,3.15,0,0,0-.2,1.15,4.3,4.3,0,0,0,1.23,3,4.65,4.65,0,0,0,1.9.86c1,.3,2.11.62,2.3,1.6a3,3,0,0,1-.4,1.6,4.34,4.34,0,0,0-.32.87,7.4,7.4,0,0,0,.12,1.8l.09.62c.47,4,1,7.6,1.49,10.91a104.3,104.3,0,0,0,2.15,10.63c.07.25.14.53.21.83.45,1.77,1.06,4.19,2.36,5.18a1.31,1.31,0,0,0,.52.29c4.67.69,25.23-5,25.43-5a.46.46,0,0,1,.57.31.47.47,0,0,1-.32.57C223.56,141.48,205.79,146.37,199.61,146.37Z" fill="#231f20"></path><path d="M254.4,117.77l7.09-.66s-2.62-2.72-2.17-5,1.94-2.38-.58-6.26c-1.45-2.22-3.28-3.93-3.85-6.58-.65-3.07-2.57-4.47-5.86-3.62a16.22,16.22,0,0,1-3.06.66c-1,0-1.91-.16-2.86-.17a7.45,7.45,0,0,0-6.53,3.88c-.51,1-.21,2.25-.68,3s-1.8,1.07-2.41,1.55a4.16,4.16,0,0,0-1.62,4.57c.67,3.66,4.1,5.47.68,7.62s-3.57,4.61-3.57,4.61Z" fill="#fff"></path><path d="M229,121.86a.43.43,0,0,1-.31-.12.43.43,0,0,1-.15-.36c0-.11.21-2.72,3.79-5,1.86-1.17,1.39-2,.46-3.77a11.15,11.15,0,0,1-1.35-3.37,4.65,4.65,0,0,1,1.79-5,6.58,6.58,0,0,1,1-.59,3.89,3.89,0,0,0,1.29-.85,2.86,2.86,0,0,0,.26-1.21,4.72,4.72,0,0,1,.4-1.76,7.91,7.91,0,0,1,6.94-4.13c.43,0,.85.05,1.28.09a10.33,10.33,0,0,0,1.56.08,10.48,10.48,0,0,0,2.28-.46l.69-.18a4.68,4.68,0,0,1,6.42,4,11.85,11.85,0,0,0,2.49,4.63c.43.57.87,1.17,1.29,1.8,1.91,2.94,1.66,3.93,1.09,5.29a6.91,6.91,0,0,0-.44,1.31c-.33,1.65,1.36,3.85,2.05,4.56a.45.45,0,0,1,.1.47.47.47,0,0,1-.39.3l-7.08.67L229,121.86Zm14-25.23a7,7,0,0,0-6,3.63,3.88,3.88,0,0,0-.3,1.43,3.52,3.52,0,0,1-.4,1.61,4.15,4.15,0,0,1-1.65,1.18,5.69,5.69,0,0,0-.86.49,3.74,3.74,0,0,0-1.45,4.13,10.65,10.65,0,0,0,1.25,3.11c.93,1.72,1.81,3.35-.78,5a7.16,7.16,0,0,0-3.23,3.67l24.77-3.54h0l6.22-.59c-.79-1-2.05-2.93-1.69-4.68a7.22,7.22,0,0,1,.49-1.49c.46-1.09.73-1.75-1-4.43-.39-.61-.83-1.19-1.25-1.76a12.65,12.65,0,0,1-2.66-5,3.79,3.79,0,0,0-5.29-3.27l-.68.18a11.24,11.24,0,0,1-2.48.49,10.52,10.52,0,0,1-1.69-.08c-.4,0-.8-.08-1.2-.08Z" fill="#231f20"></path><path d="M177.43,124.46a.5.5,0,0,1-.26-.08.5.5,0,0,1-.17-.68c2.52-4.13,10.88-17.61,13.11-17.9a.79.79,0,0,1,.65.2c1.53,1.47-2.72,11.12-4.62,15.21a.5.5,0,0,1-.91-.42c2.74-5.89,5.31-12.72,4.89-14-1.47.69-7.3,9.24-12.26,17.39A.51.51,0,0,1,177.43,124.46Z" fill="#231f20"></path><polygon points="175.46 122.61 150.86 154.35 154.69 157.35 156.28 163.95 186.6 152.76 192.37 121.32 175.46 122.61" fill="#fff"></polygon><path d="M156.28,164.45a.59.59,0,0,1-.23,0,.49.49,0,0,1-.25-.33l-1.56-6.43-3.69-2.89a.5.5,0,0,1-.08-.7l24.6-31.74a.48.48,0,0,1,.35-.19l16.91-1.3a.51.51,0,0,1,.41.17.49.49,0,0,1,.12.42l-5.77,31.44a.49.49,0,0,1-.31.38l-30.32,11.19A.57.57,0,0,1,156.28,164.45Zm-4.72-10.18L155,157a.42.42,0,0,1,.18.27l1.47,6.06,29.52-10.9,5.6-30.52-16,1.23Z" fill="#d1d3d4"></path><polygon points="178.51 127.96 174.4 122.59 188.09 116.99 191.21 120.42 178.51 127.96" fill="#d1d3d4"></polygon><path d="M178.51,128.46a.49.49,0,0,1-.39-.19L174,122.89a.48.48,0,0,1-.09-.43.49.49,0,0,1,.3-.33l13.7-5.61a.5.5,0,0,1,.56.13l3.11,3.43a.52.52,0,0,1,.13.41.53.53,0,0,1-.24.36l-12.7,7.54A.48.48,0,0,1,178.51,128.46Zm-3.32-5.66,3.45,4.5,11.79-7L188,117.58Z" fill="#d1d3d4"></path><path d="M185.42,126.94h-.07a.51.51,0,0,1-.42-.57c0-.05.75-5.05,1.77-10,2.13-10.37,3.38-10.43,4-10.46a1,1,0,0,1,.8.33c1.86,1.86,1.24,14.23,1.1,16.69a.52.52,0,0,1-.53.47.5.5,0,0,1-.47-.53c.48-8.29.09-15.61-.86-16-1.22.38-3.45,10.48-4.8,19.62A.51.51,0,0,1,185.42,126.94Z" fill="#231f20"></path><polygon points="181.62 126.93 173.4 161.95 181.44 167.35 195.5 156.59 197.18 123.11 181.62 126.93" fill="#fff"></polygon><path d="M181.44,167.85a.54.54,0,0,1-.28-.08l-8-5.41a.48.48,0,0,1-.21-.53l8.22-35a.5.5,0,0,1,.37-.38l15.56-3.82a.5.5,0,0,1,.44.1.49.49,0,0,1,.18.41L196,156.61a.47.47,0,0,1-.19.37l-14.07,10.77A.47.47,0,0,1,181.44,167.85ZM174,161.73l7.46,5L195,156.33l1.63-32.58L182,127.34Z" fill="#d1d3d4"></path><polygon points="180.77 126.58 186.3 129.33 197.18 123.11 193.75 119.8 180.77 126.58" fill="#d1d3d4"></polygon><path d="M186.3,129.83a.44.44,0,0,1-.22-.05L180.54,127a.52.52,0,0,1-.27-.45.51.51,0,0,1,.27-.45l13-6.77a.5.5,0,0,1,.58.08l3.43,3.31a.49.49,0,0,1,.15.42.53.53,0,0,1-.25.37l-10.88,6.23A.51.51,0,0,1,186.3,129.83Zm-4.43-3.26,4.42,2.2L196.35,123l-2.69-2.59Z" fill="#d1d3d4"></path><line x1="177.89" y1="130.04" x2="158.19" y2="160.02" fill="#d1d3d4"></line><path d="M158.19,160.52a.57.57,0,0,1-.28-.08.51.51,0,0,1-.14-.7l19.7-30a.5.5,0,0,1,.69-.14.49.49,0,0,1,.14.69l-19.69,30A.51.51,0,0,1,158.19,160.52Z" fill="#d1d3d4"></path><line x1="187.12" y1="132.72" x2="182.78" y2="164.92" fill="#d1d3d4"></line><path d="M182.78,165.42h-.07a.5.5,0,0,1-.43-.56l4.35-32.2a.5.5,0,1,1,1,.13L183.27,165A.5.5,0,0,1,182.78,165.42Z" fill="#d1d3d4"></path><path d="M189.79,131.11h0a.5.5,0,0,1-.5-.5c.07-10.89.56-23.91,2.53-24.09h0c1.59,0,3.07,7.48,4.39,22.23a.5.5,0,0,1-.46.54.49.49,0,0,1-.54-.45c-.85-9.53-2.31-19.78-3.35-21.22-.93,1.6-1.55,12.71-1.61,23A.5.5,0,0,1,189.79,131.11Z" fill="#231f20"></path><path d="M226.06,198.56l-6.9,20.32-24.9-12.21s-9.18,12.12-7.52,12.46,7.46-1.24,7.46-1.24,27.78,19.79,31.12,16.86S240,202.37,240,202.37" fill="#fff"></path><path d="M224.31,235.5c-1.91,0-6.08-1.49-16-7.69-6.65-4.14-13-8.62-14.16-9.42-1.17.31-5.88,1.52-7.47,1.19a.69.69,0,0,1-.51-.44c-.56-1.51,5.24-9.41,7.76-12.74a.46.46,0,0,1,.57-.14l24.44,12,6.73-19.83a.46.46,0,0,1,.58-.29.47.47,0,0,1,.28.58L219.6,219a.49.49,0,0,1-.26.27.46.46,0,0,1-.38,0l-24.57-12c-3.64,4.84-7.25,10.23-7.4,11.46,1.45.16,5.57-.84,7.09-1.26a.5.5,0,0,1,.39.07c10.62,7.57,28.31,18.85,30.55,16.88,2.58-2.26,10.65-22.05,14.56-32.19a.45.45,0,0,1,.59-.26.46.46,0,0,1,.26.59c-.46,1.2-11.41,29.58-14.8,32.55A1.89,1.89,0,0,1,224.31,235.5Z" fill="#231f20"></path><path d="M269.87,196.3l24.07,46s13.18-4.73,12.2-3.35-19.42,12.5-19.42,12.5l-33.61-52.32" fill="#fff"></path><path d="M286.72,252a.48.48,0,0,1-.39-.21l-33.6-52.32a.44.44,0,0,1,.14-.63.45.45,0,0,1,.63.13l33.36,51.95c6.28-3.79,15.68-9.62,18.26-11.58a113,113,0,0,0-11,3.48.44.44,0,0,1-.55-.21l-24.08-46.06a.46.46,0,0,1,.81-.42l23.89,45.7c11.67-4.17,12.15-3.55,12.38-3.24a.58.58,0,0,1,0,.72c-1,1.42-17.66,11.48-19.56,12.62A.39.39,0,0,1,286.72,252Z" fill="#231f20"></path><path d="M234,126.17c-6.43,6.37-4.75,18.16-5.14,28.16l31.74,4.84s1.73-28.24-2.78-32.56S240.44,119.8,234,126.17Z" fill="#231f20"></path><path d="M260.6,159.61h-.07l-31.73-4.84a.45.45,0,0,1-.38-.45c.08-2,.07-4.15.07-6.22,0-8.37-.06-17,5.2-22.25h0c6.4-6.33,19.56-4.23,24.43.44,4.61,4.42,3,31.75,2.92,32.91a.42.42,0,0,1-.17.31A.39.39,0,0,1,260.6,159.61ZM229.32,154l30.86,4.7c.2-3.73,1.33-27.9-2.66-31.73s-16.75-6.84-23.21-.45c-5,5-5,13.43-4.94,21.62C229.38,150,229.38,152,229.32,154Z" fill="#231f20"></path><polygon points="257.32 142.66 270.67 146.22 274.18 131.63 255.66 125.03 257.32 142.66" fill="#231f20"></polygon><path d="M270.67,146.66l-.12,0-13.34-3.55a.45.45,0,0,1-.33-.38l-1.65-17.63a.42.42,0,0,1,.16-.39.43.43,0,0,1,.42-.07l18.52,6.59a.45.45,0,0,1,.28.52l-3.52,14.59a.41.41,0,0,1-.2.28A.46.46,0,0,1,270.67,146.66Zm-12.94-4.34,12.61,3.36,3.32-13.77-17.49-6.23Z" fill="#231f20"></path><polyline points="241.69 121.7 216.44 128.41 220.9 143.68 244.47 139.42 241.77 123.29" fill="#231f20"></polyline><path d="M220.9,144.12a.43.43,0,0,1-.42-.31L216,128.53a.51.51,0,0,1,0-.34.47.47,0,0,1,.27-.21l25.25-6.7a.44.44,0,1,1,.23.85L217,128.72l4.22,14.46L244,139.07l-2.63-15.7a.44.44,0,1,1,.87-.15l2.7,16.13a.45.45,0,0,1-.36.51L221,144.12Z" fill="#231f20"></path><path d="M250.74,118.26l.62,6.18s-.3,3.52-4.17,2.82a7.82,7.82,0,0,1-5.42-4,5.25,5.25,0,0,1-.08-1.59l-.2-3.62c-.1-1.83-.35-3.71-.3-5.54s0-3.74.07-5.63a.54.54,0,0,1,.09-.31.37.37,0,0,1,.25-.1,3.78,3.78,0,0,1,1.57,0,13.57,13.57,0,0,0-.45-3.81,7.36,7.36,0,0,1,2.44,3.18,19.7,19.7,0,0,1,3.84.19,4.19,4.19,0,0,0-.35-2.61,19.46,19.46,0,0,1,1.48,2.11,5,5,0,0,0,1.84.24c.3-.26.2-2,.24-2.47a8.76,8.76,0,0,1,1.74,3.8,70.41,70.41,0,0,1,.27,7.84A3,3,0,0,1,250.74,118.26Z" fill="#fff"></path><path d="M248.16,127.81a5.63,5.63,0,0,1-1-.1,8.36,8.36,0,0,1-5.75-4.22,3.22,3.22,0,0,1-.14-1.34,3.11,3.11,0,0,0,0-.42L241,118.1c0-.6-.09-1.21-.14-1.82a33.5,33.5,0,0,1-.16-3.75q0-1.34,0-2.67c0-1,0-2,0-3a.86.86,0,0,1,.21-.61.8.8,0,0,1,.5-.23,4,4,0,0,1,1.2,0,13.6,13.6,0,0,0-.44-3.16.45.45,0,0,1,.18-.49.47.47,0,0,1,.53,0,7.72,7.72,0,0,1,2.47,3.08,20.71,20.71,0,0,1,3.15.14,3.75,3.75,0,0,0-.37-1.89.46.46,0,0,1,.77-.48,18.07,18.07,0,0,1,1.43,2,8,8,0,0,0,1.25.17c0-.3.05-1.11.05-1.48s0-.48,0-.6a.45.45,0,0,1,.8-.26,8.92,8.92,0,0,1,1.84,4,53.84,53.84,0,0,1,.28,7.3V115a3.83,3.83,0,0,1-1.23,2.93,3.33,3.33,0,0,1-2.2.81l.56,5.65a3.93,3.93,0,0,1-1.41,2.71A3.56,3.56,0,0,1,248.16,127.81Zm-6.44-20.87c0,1,0,2,0,2.92s0,1.8,0,2.7a34.21,34.21,0,0,0,.16,3.64c.05.62.11,1.24.14,1.85l.19,3.63a4.14,4.14,0,0,1,0,.5,2.93,2.93,0,0,0,.05.92,7.42,7.42,0,0,0,5.08,3.71,3.15,3.15,0,0,0,2.57-.42,3.05,3.05,0,0,0,1.06-2l-.62-6.1a.47.47,0,0,1,.52-.5,2.47,2.47,0,0,0,2-.55,2.92,2.92,0,0,0,.91-2.24v-.64a60.54,60.54,0,0,0-.26-7.1,10.49,10.49,0,0,0-.86-2.46c0,.76-.13,1.16-.36,1.37-.41.37-2.25-.11-2.26-.12a.68.68,0,0,1-.28-.23h0l-.21-.33a3.94,3.94,0,0,1-.08.68.45.45,0,0,1-.51.37,20.46,20.46,0,0,0-3.75-.19.44.44,0,0,1-.45-.28,7.11,7.11,0,0,0-1.28-2.06,14.22,14.22,0,0,1,.17,2.53.45.45,0,0,1-.56.43A3.41,3.41,0,0,0,241.72,106.94Z" fill="#231f20"></path><path d="M251,121.3a6,6,0,0,1-4.28-1.18,4.35,4.35,0,0,1-1.69-3.23,12.1,12.1,0,0,0,5.72,1.37Z" fill="#231f20"></path><path d="M250.35,121.78a6.1,6.1,0,0,1-3.92-1.32,4.77,4.77,0,0,1-1.85-3.59.43.43,0,0,1,.23-.36.42.42,0,0,1,.42,0,11.8,11.8,0,0,0,5.48,1.32.43.43,0,0,1,.47.4l.25,3a.45.45,0,0,1-.38.48A6.56,6.56,0,0,1,250.35,121.78Zm-4.78-4.14a4.37,4.37,0,0,0,1.43,2.15,5.36,5.36,0,0,0,3.51,1.1l-.18-2.18A11.88,11.88,0,0,1,245.57,117.64Z" fill="#231f20"></path><path d="M248.72,113.71a3.81,3.81,0,0,1-.65,0,.44.44,0,0,1-.37-.5.45.45,0,0,1,.51-.37c.45.07,1.19,0,1.36-.17a12.43,12.43,0,0,0-1.84-2.81.44.44,0,0,1,.06-.62.46.46,0,0,1,.63.06c2.49,3.06,2,3.69,1.85,3.9A1.94,1.94,0,0,1,248.72,113.71Z" fill="#231f20"></path><path d="M243,109.17a5.85,5.85,0,0,0-1.35-2,2,2,0,0,0-2.25-.33,2.45,2.45,0,0,0-.84,2.39,9.64,9.64,0,0,0,.82,2.92,3.46,3.46,0,0,0,1,1.47,1.37,1.37,0,0,0,1.66.07" fill="#fff"></path><path d="M241.28,114.41a2.12,2.12,0,0,1-1.23-.42,3.91,3.91,0,0,1-1.13-1.65,10,10,0,0,1-.86-3,2.84,2.84,0,0,1,1.06-2.83,2.46,2.46,0,0,1,2.78.37,6.23,6.23,0,0,1,1.47,2.13.46.46,0,1,1-.82.41,5.56,5.56,0,0,0-1.23-1.84,1.56,1.56,0,0,0-1.72-.29c-.71.44-.66,1.61-.63,2a9.11,9.11,0,0,0,.79,2.78,3,3,0,0,0,.85,1.28.91.91,0,0,0,1.08.09.47.47,0,0,1,.65.06.46.46,0,0,1-.06.64A1.54,1.54,0,0,1,241.28,114.41Z" fill="#231f20"></path><path d="M285.51,249.9c.07.09,9.68-6.23,9.68-6.23s-.27-2.89.5-3.49,11.84-3.89,12.76-2.33-21.37,16.22-21.37,16.22Z" fill="#231f20"></path><path d="M287.08,254.51l-.13,0a.44.44,0,0,1-.28-.27l-1.57-4.16a.43.43,0,0,1,.2-.54l.08,0c.57-.29,5.79-3.69,9.35-6-.07-.94-.11-3,.69-3.62s9.65-3.3,12.44-2.77a1.36,1.36,0,0,1,1,.57c.31.53.78,1.32-10.47,9.28-5.39,3.82-11,7.49-11,7.53A.55.55,0,0,1,287.08,254.51Zm-1-4.44,1.25,3.33C297.06,247,307.37,239.57,308,238a1,1,0,0,0-.29-.09c-2.47-.51-11.09,2.1-11.76,2.59-.35.27-.45,1.82-.33,3.1a.44.44,0,0,1-.19.41C289.47,248,287.08,249.53,286.05,250.07Z" fill="#231f20"></path><path d="M196.83,207.45,190.31,217l1.93,2.38s-8.36,5-9.82,3.8S193,205.29,193,205.29Z" fill="#231f20"></path><path d="M183.08,223.79a1.41,1.41,0,0,1-.94-.27c-1.47-1.2,4.88-10.72,10.47-18.48a.43.43,0,0,1,.57-.13l3.87,2.15a.46.46,0,0,1,.21.28.43.43,0,0,1-.06.35L190.86,217l1.72,2.12a.42.42,0,0,1,.09.36.44.44,0,0,1-.2.3C190.73,220.8,185.52,223.79,183.08,223.79Zm10-17.92c-5.41,7.55-10.71,15.9-10.35,17,.68.54,5-1.41,8.84-3.64l-1.61-2a.44.44,0,0,1,0-.52l6.24-9.15Z" fill="#231f20"></path><path d="M248.71,116h-.27c-1.19-.12-2.24-1-3.1-2.73a.44.44,0,0,1,.19-.6.45.45,0,0,1,.6.19c.71,1.41,1.52,2.17,2.4,2.26a3.37,3.37,0,0,0,2.48-1.3.44.44,0,0,1,.62-.07.44.44,0,0,1,.08.62A4.4,4.4,0,0,1,248.71,116Z" fill="#231f20"></path><path d="M244.89,108.57a.5.5,0,0,1-.26-.08.45.45,0,0,1-.1-.62c.09-.12.86-1.15,1.75-1.05a1.36,1.36,0,0,1,1.09.93.45.45,0,0,1-.81.37c-.06-.15-.2-.4-.37-.42s-.71.38-.94.69A.44.44,0,0,1,244.89,108.57Z" fill="#231f20"></path><path d="M251.81,108.66a.45.45,0,0,1-.4-.25c-.08-.17-.41-.69-.78-.77s-.43.48-.43.49a.44.44,0,0,1-.55.29.44.44,0,0,1-.3-.55,1.34,1.34,0,0,1,1.48-1.1,2.36,2.36,0,0,1,1.38,1.26.44.44,0,0,1-.21.59A.41.41,0,0,1,251.81,108.66Z" fill="#231f20"></path><path d="M228,150.43s-2.72,17.81-13.28,62.1c0,0,1.29,7.28,23.66,7.69s41.59-15.56,41.59-15.56l-17.79-50.73Z" fill="#008080"></path><polygon points="236.22 158.95 235.91 122.85 239.68 121.63 239.77 159.58 236.22 158.95" fill="#008080"></polygon><polygon points="253.77 122.97 253.24 157.49 256.54 158.55 257.35 124.13 253.77 122.97" fill="#008080"></polygon><path d="M194.76,105.26a3.71,3.71,0,0,0-3-1.31,11,11,0,0,0-3.29.68c-.21.07-.47.2-.46.42s.21.3.39.37a9.89,9.89,0,0,0,3.77.69,2.84,2.84,0,0,0-.5,2.69,5.57,5.57,0,0,0,1.83,3.28,3.19,3.19,0,0,0,3.57.37" fill="#fff"></path><path d="M195.65,113.3a3.89,3.89,0,0,1-2.41-.86,6.14,6.14,0,0,1-2-3.54,4,4,0,0,1,.11-2.35,10.91,10.91,0,0,1-3.1-.7.91.91,0,0,1-.68-.77c0-.19,0-.65.79-.89a11.36,11.36,0,0,1,3.4-.69h0a4.17,4.17,0,0,1,3.34,1.48.46.46,0,1,1-.73.55,3.23,3.23,0,0,0-2.61-1.12h0a10.56,10.56,0,0,0-3.06.63,9.21,9.21,0,0,0,3.49.62.48.48,0,0,1,.43.29.45.45,0,0,1-.12.5,2.54,2.54,0,0,0-.37,2.26,5.19,5.19,0,0,0,1.67,3,2.73,2.73,0,0,0,3,.34.46.46,0,0,1,.49.77A3.1,3.1,0,0,1,195.65,113.3Z" fill="#231f20"></path><path d="M247.93,172.75h-.64c-10.95-.36-11.56-12.65-11.57-12.77a.55.55,0,0,1,.14-.37.48.48,0,0,1,.37-.15l22.69.22a.51.51,0,0,1,.49.45,11.86,11.86,0,0,1-2.76,9.35C254.62,171.64,251.69,172.75,247.93,172.75Zm-11.16-12.29a17,17,0,0,0,1.48,5.32,9.82,9.82,0,0,0,9.07,6c3.76.11,6.66-.87,8.6-3a11,11,0,0,0,2.53-8.12Z" fill="#231f20"></path><path d="M168,205.79a.51.51,0,0,1-.36-.15.49.49,0,0,1,0-.7L210,163.6a.5.5,0,1,1,.7.71l-42.29,41.34A.49.49,0,0,1,168,205.79Z" fill="#d1d3d4"></path><path d="M209.13,106.79a.48.48,0,0,1-.38-.18.49.49,0,0,1,.06-.7l12.91-10.86a.49.49,0,0,1,.7.06.51.51,0,0,1-.06.71l-12.91,10.85A.49.49,0,0,1,209.13,106.79Z" fill="#d1d3d4"></path><path d="M171.61,185.12a.5.5,0,0,1-.33-.87l13.81-12.38a.5.5,0,0,1,.67.75L172,185A.54.54,0,0,1,171.61,185.12Z" fill="#d1d3d4"></path><ellipse cx="115.29" cy="255.11" rx="8.24" ry="1.29" fill="#d1d3d4"></ellipse><path d="M116.85,217.66a6.29,6.29,0,0,0-.71-3.34,25.29,25.29,0,0,1-1.5-2.11c-.63-1.35-.19-3-.34-4.44a5.52,5.52,0,0,0-1.56-3.31c-.78-.78-1.78-1.32-2.52-2.14-1.22-1.35-1.57-3.24-2.26-4.92a12.28,12.28,0,0,0-4.88-5.73c1.33,2.67-1.69,6.07-.32,8.72.43.84,1.26,1.45,1.58,2.35.77,2.15-1.79,4.48-1,6.61.41,1.06,1.55,1.68,2.08,2.69.71,1.36.15,3,.21,4.55a8.4,8.4,0,0,0,2.9,5.49c1,.92,2,1.71,3.06,2.53,1.23,1,1.75,2,2.84.44A13.72,13.72,0,0,0,116.85,217.66Z" fill="#d1d3d4"></path><path d="M118.22,218.87a8,8,0,0,1,0-5c.76-1.75,2.64-3,2.87-4.88.14-1.24-.49-2.5-.24-3.73s1.25-2.06,2.07-3a12.4,12.4,0,0,0,3.2-7.59,19,19,0,0,1,3.06,5,6.45,6.45,0,0,1-.45,5.69,5,5,0,0,0-.77,1.27c-.37,1.2.66,2.33,1.2,3.48a4,4,0,0,1-.38,4.11c-1.09,1.35-3.18,1.88-3.71,3.53a8.3,8.3,0,0,0-.19,1.87,5.48,5.48,0,0,1-4,4.71c-1.28.31-1.25-.2-1.48-1.28C119.13,221.72,118.57,220.32,118.22,218.87Z" fill="#d1d3d4"></path><path d="M114.14,207.07c-.91-3.15-1.28-6.45-2.24-9.58a51.36,51.36,0,0,0-3-7.15l3.91,1.65c1.25.53,2.61,1.15,3.2,2.37,1,2.14-.82,4.87.27,7a17.81,17.81,0,0,0,1.54,1.95c1.15,1.61,1,3.84.35,5.72-.28.81-1.46,5-2.52,3.83-.42-.47-.46-2.2-.64-2.84C114.76,209,114.42,208.05,114.14,207.07Z" fill="#d1d3d4"></path><path d="M116.28,249c-.78-5.16-3.22-23.32-3.25-23.5l.67-.09c0,.18,2.47,18.34,3.25,23.49Z" fill="#d1d3d4"></path><path d="M117.19,253.82h-.67c0-6.12,2.59-29.5,4.07-31.11l.5.46C120.11,224.23,117.26,245.44,117.19,253.82Z" fill="#d1d3d4"></path><path d="M118.52,252.66l-.68,0c.59-13.19-2.21-40.9-2.24-41.18l.67-.07C116.3,211.66,119.11,239.42,118.52,252.66Z" fill="#d1d3d4"></path><path d="M109.58,236.54h14.56l-1,14.74a4.86,4.86,0,0,1-4.86,4.52h-2.81a4.85,4.85,0,0,1-4.85-4.52Z" fill="#fff"></path><path d="M118.26,256.3h-2.81a5.37,5.37,0,0,1-5.35-5l-1-14.74a.5.5,0,0,1,.13-.37.49.49,0,0,1,.37-.16h14.56a.46.46,0,0,1,.36.16.46.46,0,0,1,.13.37l-1,14.74A5.39,5.39,0,0,1,118.26,256.3ZM110.11,237l1,14.2a4.38,4.38,0,0,0,4.36,4.06h2.81a4.38,4.38,0,0,0,4.36-4.06l1-14.2Z" fill="#d1d3d4"></path></g></svg>