<svg id="_41_shopping" data-name="#41_shopping" xmlns="http://www.w3.org/2000/svg" viewBox="0 0 400 300" width="406" height="306" class="illustration styles_illustrationTablet__1DWOa"><path d="M135.83,115.23a.52.52,0,0,1-.29-.09.51.51,0,0,1-.12-.7c.12-.17,12.13-17.17,26.45-27.19a.49.49,0,0,1,.69.12.5.5,0,0,1-.12.7C148.27,98,136.36,114.84,136.24,115A.5.5,0,0,1,135.83,115.23Z" fill="#231f20"></path><path d="M303,256.22h-.08l-41-6.74a20.14,20.14,0,0,1-16.79-17.26L240.1,195a.48.48,0,0,1,.42-.56.5.5,0,0,1,.57.42l5,37.28a19.17,19.17,0,0,0,16,16.41l40.76,6.69L321,241.7l-30-5.83a23.35,23.35,0,0,1-18.76-21.06l-6.5-83.91-31.22,15.89a.53.53,0,0,1-.39,0,.51.51,0,0,1-.29-.25L221.68,122a.51.51,0,0,1,0-.42.5.5,0,0,1,.32-.28l30.16-8.54a.49.49,0,0,1,.52.17l13.83,16.67,76.42,9.62a.51.51,0,0,1,.44.56.5.5,0,0,1-.56.44l-76-9.57,6.5,84a22.33,22.33,0,0,0,18,20.15l31.08,6.05a.51.51,0,0,1,.39.38.5.5,0,0,1-.19.51l-19.24,14.3A.47.47,0,0,1,303,256.22ZM222.85,122.14l11.72,23.53L265.46,130l-13.35-16.09Z" fill="#d1d3d4"></path><path d="M240.59,195.38a.5.5,0,0,1-.19-1L270.1,182a.48.48,0,0,1,.26,0l62.17,8.59a.51.51,0,0,1,.43.57.5.5,0,0,1-.57.42l-62-8.57-29.58,12.35A.41.41,0,0,1,240.59,195.38Z" fill="#d1d3d4"></path><ellipse cx="281.41" cy="237.42" rx="4.42" ry="5.23" fill="#fff"></ellipse><path d="M281.41,243.16c-2.71,0-4.92-2.58-4.92-5.74s2.21-5.73,4.92-5.73,4.92,2.57,4.92,5.73S284.13,243.16,281.41,243.16Zm0-10.47c-2.16,0-3.92,2.12-3.92,4.73s1.76,4.74,3.92,4.74,3.92-2.13,3.92-4.74S283.57,232.69,281.41,232.69Z" fill="#d1d3d4"></path><ellipse cx="264.57" cy="255" rx="4.42" ry="5.23" fill="#fff"></ellipse><path d="M264.57,260.73c-2.71,0-4.92-2.57-4.92-5.73s2.21-5.73,4.92-5.73,4.93,2.57,4.93,5.73S267.29,260.73,264.57,260.73Zm0-10.46c-2.16,0-3.92,2.12-3.92,4.73s1.76,4.73,3.92,4.73,3.93-2.12,3.93-4.73S266.74,250.27,264.57,250.27Z" fill="#d1d3d4"></path><ellipse cx="288.78" cy="258.63" rx="4.42" ry="5.23" fill="#fff"></ellipse><path d="M288.78,264.37c-2.71,0-4.92-2.58-4.92-5.74s2.21-5.73,4.92-5.73,4.92,2.57,4.92,5.73S291.49,264.37,288.78,264.37Zm0-10.47c-2.16,0-3.92,2.12-3.92,4.73s1.76,4.74,3.92,4.74,3.92-2.13,3.92-4.74S290.94,253.9,288.78,253.9Z" fill="#d1d3d4"></path><ellipse cx="308.35" cy="243.73" rx="4.42" ry="5.23" fill="#fff"></ellipse><path d="M308.35,249.46c-2.71,0-4.92-2.57-4.92-5.73s2.21-5.74,4.92-5.74,4.92,2.58,4.92,5.74S311.06,249.46,308.35,249.46Zm0-10.47c-2.16,0-3.92,2.13-3.92,4.74s1.76,4.73,3.92,4.73,3.92-2.12,3.92-4.73S310.51,239,308.35,239Z" fill="#d1d3d4"></path><path d="M313.28,188.92l-.11,0a.49.49,0,0,1-.38-.59l11-50.19a.49.49,0,0,1,.59-.38.5.5,0,0,1,.38.6l-11,50.18A.5.5,0,0,1,313.28,188.92Z" fill="#d1d3d4"></path><path d="M297.73,186.76h0a.49.49,0,0,1-.48-.51l1.34-52a.5.5,0,0,1,1,0l-1.34,52A.5.5,0,0,1,297.73,186.76Z" fill="#d1d3d4"></path><path d="M255.68,189.18a.51.51,0,0,1-.5-.44L248.4,139a.5.5,0,1,1,1-.13l6.78,49.73a.5.5,0,0,1-.42.56Z" fill="#d1d3d4"></path><path d="M259.66,151.16c.28-1-3.92-44.22-3.92-44.22l46.61-6.24L315.21,149Z" fill="#fff"></path><path d="M259.66,151.62a.47.47,0,0,1-.36-.18.44.44,0,0,1-.09-.38c.14-1.29-2.27-27-3.92-44.08a.45.45,0,0,1,.39-.49l46.61-6.25a.45.45,0,0,1,.5.34l12.86,48.28a.43.43,0,0,1-.07.38.45.45,0,0,1-.35.19l-55.55,2.19Zm-3.42-44.29c1,9.94,3.73,38.75,3.87,43.35l54.51-2.14L302,101.2Z" fill="#231f20"></path><polygon points="324.31 189.94 332.46 123.26 295.73 113.41 263.51 180.26 324.31 189.94" fill="#fff"></polygon><path d="M324.31,190.4h-.07l-60.8-9.68a.48.48,0,0,1-.33-.24.46.46,0,0,1,0-.41l32.21-66.85a.48.48,0,0,1,.53-.24l36.74,9.85a.45.45,0,0,1,.33.49L324.77,190a.5.5,0,0,1-.18.31A.47.47,0,0,1,324.31,190.4Zm-60.12-10.5,59.73,9.52,8-65.82L296,114Z" fill="#231f20"></path><path d="M295.61,130.25a.45.45,0,0,1-.45-.55c0-1.16-2.81-15.69-7.26-20.34-1.56-1.64-3.15-1.75-4.37-.47-3.74,3.92-3.06,18.92-3.06,19.07a.46.46,0,1,1-.91,0c0-.63-.7-15.54,3.31-19.74a3.41,3.41,0,0,1,2.51-1.15c1.83,0,3.6,1.55,5.26,4.6C294,117.8,296.42,129.38,296,130A.44.44,0,0,1,295.61,130.25Z" fill="#231f20"></path><path d="M284.7,188.77a.5.5,0,0,1-.5-.47l-3.38-54.24a.5.5,0,0,1,.47-.53.51.51,0,0,1,.53.47l3.38,54.24a.51.51,0,0,1-.47.53Z" fill="#d1d3d4"></path><path d="M255.58,193.31c-.32-.8,6.21-63.51,6.21-63.51L299,136.25l5.19,58.5Z" fill="#fff"></path><path d="M304.17,195.21h0l-48.59-1.44a.47.47,0,0,1-.41-.29c-.33-.81,4.21-44.84,6.18-63.73a.44.44,0,0,1,.17-.32.42.42,0,0,1,.36-.08l37.18,6.45a.47.47,0,0,1,.38.41l5.2,58.5a.45.45,0,0,1-.46.5ZM256,192.87l47.64,1.41-5.12-57.64-36.36-6.31C260.45,147.11,256.22,188.36,256,192.87Z" fill="#231f20"></path><polygon points="261.79 129.8 267.5 123.34 308.98 126.38 298.98 136.25 261.79 129.8" fill="#fff"></polygon><path d="M299,136.71h-.08l-37.19-6.45a.47.47,0,0,1-.35-.3.46.46,0,0,1,.09-.46l5.71-6.46a.5.5,0,0,1,.38-.15l41.47,3a.48.48,0,0,1,.4.3.47.47,0,0,1-.11.49l-10,9.87A.48.48,0,0,1,299,136.71Zm-36.31-7.22,36.15,6.27,9.12-9-40.24-3Z" fill="#231f20"></path><polygon points="308.98 126.38 315.38 189.31 304.17 194.75 298.98 136.25 308.98 126.38" fill="#fff"></polygon><path d="M304.17,195.21a.46.46,0,0,1-.22-.06.45.45,0,0,1-.23-.36l-5.2-58.5a.45.45,0,0,1,.14-.36l10-9.88a.46.46,0,0,1,.77.28l6.41,62.93a.47.47,0,0,1-.26.46l-11.21,5.45A.45.45,0,0,1,304.17,195.21Zm-4.72-58.78,5.12,57.62,10.33-5-6.28-61.66Z" fill="#231f20"></path><path d="M288.16,140.69h-.05a.45.45,0,0,1-.4-.5c.89-8.24,1.77-29.84-4.77-30.77a3.7,3.7,0,0,0-2.86.86c-6.17,4.74-8.73,25.82-8.76,26a.46.46,0,1,1-.91-.11c.11-.88,2.64-21.67,9.11-26.65a4.62,4.62,0,0,1,3.55-1c8.75,1.24,5.68,30.52,5.54,31.77A.45.45,0,0,1,288.16,140.69Z" fill="#231f20"></path><path d="M268.09,109.14a.46.46,0,0,1-.45-.44c0-.85-.84-20.85,8-22.6a10.16,10.16,0,0,1,8.09,1.66c6.88,4.84,8.82,17.2,8.9,17.73a.46.46,0,0,1-.9.14c0-.13-2-12.51-8.52-17.12a9.27,9.27,0,0,0-7.4-1.51c-8,1.59-7.23,21.46-7.22,21.66a.47.47,0,0,1-.44.48Z" fill="#231f20"></path><path d="M321.88,126.38h-.11a.46.46,0,0,1-.33-.55c0-.1,2.39-9.55,2.42-12.54,0-2-1.75-6.5-4.69-8.06-1.74-.91-3.63-.68-5.63.71-6.66,4.62-7.53,15.33-7.54,15.43a.46.46,0,1,1-.91-.06c0-.46.91-11.25,7.93-16.12,2.87-2,5.16-1.51,6.57-.76,3.39,1.79,5.2,6.8,5.18,8.87,0,3.1-2.35,12.36-2.45,12.75A.44.44,0,0,1,321.88,126.38Z" fill="#231f20"></path><path d="M321.29,179.69h-.06l-84.46-9.41a.51.51,0,0,1-.44-.56.52.52,0,0,1,.55-.44l84.26,9.39,15.88-12a.5.5,0,0,1,.7.1.51.51,0,0,1-.1.7l-16,12.08A.49.49,0,0,1,321.29,179.69Z" fill="#d1d3d4"></path><path d="M261.88,196.83a.5.5,0,0,1-.49-.44l-6.21-47.8a.51.51,0,0,1,.43-.56.49.49,0,0,1,.56.43l6.21,47.8a.49.49,0,0,1-.43.56Z" fill="#d1d3d4"></path><path d="M281.41,198.15a.5.5,0,0,1-.5-.5V151.16a.5.5,0,0,1,.5-.5.5.5,0,0,1,.5.5v46.49A.5.5,0,0,1,281.41,198.15Z" fill="#d1d3d4"></path><path d="M299.44,199.19l-.37-.34,0-.5,0,.5-.47-.15c.41-1.72,4.56-44,4.44-45.21a.53.53,0,0,1,.44-.56.5.5,0,0,1,.56.42C304.09,153.71,300,198.59,299.44,199.19Z" fill="#d1d3d4"></path><path d="M317.21,200.58h0l-76.61-5.2a.52.52,0,0,1-.47-.44l-6.24-48.53A.52.52,0,0,1,234,146a.49.49,0,0,1,.41-.15l91.52,9.36a.53.53,0,0,1,.36.2.49.49,0,0,1,.08.39l-8.66,44.38A.51.51,0,0,1,317.21,200.58ZM241,194.41l75.77,5.14,8.48-43.4-90.35-9.24Z" fill="#d1d3d4"></path><path d="M317.21,200.58a.5.5,0,0,1-.29-.09.49.49,0,0,1-.2-.5l8.66-44.38a.56.56,0,0,1,.15-.27l17-16a.5.5,0,0,1,.83.47L333,191.17a.48.48,0,0,1-.24.33l-15.25,9A.47.47,0,0,1,317.21,200.58ZM326.33,156l-8.42,43.12,14.1-8.33,10.05-49.55Z" fill="#d1d3d4"></path><path d="M337.32,167.61H326.43a.5.5,0,0,1-.5-.5.5.5,0,0,1,.5-.5h10.89a.5.5,0,0,1,.5.5A.51.51,0,0,1,337.32,167.61Z" fill="#d1d3d4"></path><path d="M236.83,170.28a.5.5,0,0,1-.18-1l21.6-8.24a.5.5,0,1,1,.36.94L237,170.25A.47.47,0,0,1,236.83,170.28Z" fill="#d1d3d4"></path><path d="M243.17,214.41a.5.5,0,0,1-.49-.44c-.07-.5-.11-.76,28.93-12.55a.51.51,0,0,1,.65.27.51.51,0,0,1-.28.66c-10.85,4.41-27.25,11.16-28.44,11.9a.54.54,0,0,1-.3.15Z" fill="#d1d3d4"></path><path d="M266.15,255.61a2.29,2.29,0,0,0,0-.52c-.3-1.84-2.52-2.44-3-.38a2.64,2.64,0,0,0,.23,2C264.4,258.44,266,257.14,266.15,255.61Z" fill="#d1d3d4"></path><path d="M283.54,237.65c0-.14,0-.28-.06-.42a1.46,1.46,0,0,0-.05-.2,4.84,4.84,0,0,0-.21-.47,3.91,3.91,0,0,0-.3-.41l-.05,0a.48.48,0,0,0-.09-.11,2.25,2.25,0,0,0-.3-.24l-.08-.05-.31-.13a1,1,0,0,0-.51,0,.62.62,0,0,0-.32.09.92.92,0,0,0-.41.27c-.05.05-.09.11-.14.17l-.13.17a3.7,3.7,0,0,0-.19.42,2.27,2.27,0,0,0-.1.58v.12a.15.15,0,0,0,0,.07,2.57,2.57,0,0,0,.05.4,2.52,2.52,0,0,0,.21.54l.07.11a2.86,2.86,0,0,0,.28.35,4,4,0,0,0,.34.27,2.35,2.35,0,0,0,.43.19,1.45,1.45,0,0,0,.8,0,1.14,1.14,0,0,0,.36-.15l.13-.1.14-.11.11-.14.11-.15v0a1.83,1.83,0,0,0,.14-.32,2.6,2.6,0,0,0,0-.39.55.55,0,0,0,0-.18Z" fill="#d1d3d4"></path><path d="M290.68,258.57a2.07,2.07,0,0,0-.05-.4,1.31,1.31,0,0,0-.16-.42l0-.06-.2-.26h0l0,0a1.59,1.59,0,0,0-.66-.39,1.34,1.34,0,0,0-.69,0,1.28,1.28,0,0,0-.56.33,2.6,2.6,0,0,0-.27.38,2.65,2.65,0,0,0-.18.42.64.64,0,0,0,0,.07c0,.13,0,.27-.05.4a.71.71,0,0,0,0,.14l0,.23a2,2,0,0,0,0,.24,1.66,1.66,0,0,0,.1.29c0,.09.08.18.13.27a2.54,2.54,0,0,0,.29.36,1.28,1.28,0,0,0,.56.33.89.89,0,0,0,.51,0,.85.85,0,0,0,.48-.15,1.2,1.2,0,0,0,.46-.46.56.56,0,0,0,.05-.08l.13-.33s0,0,0,0a2.6,2.6,0,0,0,.05-.39.19.19,0,0,0,0-.07A2.18,2.18,0,0,0,290.68,258.57Z" fill="#d1d3d4"></path><path d="M310,243.68a1.62,1.62,0,0,0-.2-.78.43.43,0,0,0,0-.07,2.09,2.09,0,0,0-.22-.28l0,0-.14-.11-.14-.11,0,0h0l-.31-.13h0a1,1,0,0,0-.51,0,.87.87,0,0,0-.47.15l-.26.2a1.28,1.28,0,0,0-.33.56,2.76,2.76,0,0,0-.08.27,4.09,4.09,0,0,0-.07.6c0,.05,0,.09,0,.14v.11a.93.93,0,0,0,.1.47.83.83,0,0,0,0,.15,1.3,1.3,0,0,0,.89.89,1.29,1.29,0,0,0,1.25-.33l0,0c.08-.1.17-.2.24-.3a2.12,2.12,0,0,0,.18-.42.65.65,0,0,0,0-.13l0-.25A1.37,1.37,0,0,0,310,243.68Z" fill="#d1d3d4"></path><path d="M85.12,84.7a.44.44,0,0,1-.24-.07.46.46,0,0,1-.15-.63c2.43-3.94,14.69-23.6,17.68-24a.83.83,0,0,1,.7.22c2,1.94-4.39,16-6.4,20.26a.46.46,0,0,1-.83-.39c4-8.45,7.64-18.2,6.59-19.21h0c-1.49,0-9.8,12-17,23.59A.44.44,0,0,1,85.12,84.7Z" fill="#231f20"></path><polygon points="82.47 82.42 49.01 125.12 54.15 129.19 56.27 138.13 97.31 123.22 105.32 80.79 82.47 82.42" fill="#fff"></polygon><path d="M56.26,138.62a.46.46,0,0,1-.23-.06.45.45,0,0,1-.25-.32l-2.07-8.77-5-4a.5.5,0,0,1-.09-.7l33.47-42.7a.48.48,0,0,1,.35-.19l22.85-1.63a.49.49,0,0,1,.41.17.49.49,0,0,1,.12.42l-8,42.44a.52.52,0,0,1-.32.37l-41,14.9A.57.57,0,0,1,56.26,138.62ZM49.71,125l4.75,3.77a.53.53,0,0,1,.18.28l2,8.38,40.25-14.61,7.84-41.51-22,1.56Z" fill="#d1d3d4"></path><polygon points="86.55 89.66 81.03 82.37 99.58 74.9 103.76 79.56 86.55 89.66" fill="#d1d3d4"></polygon><path d="M86.55,90.16a.51.51,0,0,1-.4-.2l-5.52-7.28a.53.53,0,0,1-.08-.44.5.5,0,0,1,.29-.33l18.55-7.47a.49.49,0,0,1,.56.13l4.19,4.66a.5.5,0,0,1,.12.41A.49.49,0,0,1,104,80L86.81,90.09A.48.48,0,0,1,86.55,90.16Zm-4.73-7.57L86.68,89,103,79.44,99.44,75.5Z" fill="#d1d3d4"></path><path d="M95.9,88.11h-.07a.45.45,0,0,1-.38-.52c1-6.39,4.43-27.26,7.71-27.42a1.17,1.17,0,0,1,.91.39c2.49,2.52,1.43,20.36,1.3,22.39a.46.46,0,1,1-.91-.06c.5-7.79.63-20-1-21.69a.28.28,0,0,0-.22-.12c-1.72.09-4.89,13.9-6.85,26.65A.45.45,0,0,1,95.9,88.11Z" fill="#231f20"></path><polygon points="90.75 88.29 79.39 135.54 90.22 142.9 109.3 128.46 111.81 83.23 90.75 88.29" fill="#fff"></polygon><path d="M90.22,143.4a.49.49,0,0,1-.28-.09L79.11,136a.49.49,0,0,1-.2-.53L90.27,88.17a.51.51,0,0,1,.37-.37l21-5a.5.5,0,0,1,.44.1.51.51,0,0,1,.18.41l-2.51,45.22a.48.48,0,0,1-.2.37L90.52,143.3A.45.45,0,0,1,90.22,143.4ZM80,135.32l10.25,7,18.61-14.08,2.45-44.32L91.17,88.7Z" fill="#d1d3d4"></path><polygon points="89.61 87.81 97.07 91.57 111.81 83.23 107.2 78.75 89.61 87.81" fill="#d1d3d4"></polygon><path d="M97.07,92.07a.64.64,0,0,1-.23,0l-7.46-3.77a.49.49,0,0,1-.27-.44.5.5,0,0,1,.27-.45L107,78.3a.49.49,0,0,1,.57.09l4.62,4.49a.5.5,0,0,1,.14.42.49.49,0,0,1-.25.37L97.32,92A.47.47,0,0,1,97.07,92.07ZM90.71,87.8,97.06,91,111,83.13l-3.87-3.77Z" fill="#d1d3d4"></path><line x1="85.69" y1="92.46" x2="58.86" y2="132.82" fill="#d1d3d4"></line><path d="M58.86,133.32a.45.45,0,0,1-.27-.08.49.49,0,0,1-.14-.69L85.28,92.18a.5.5,0,1,1,.83.55L59.28,133.1A.52.52,0,0,1,58.86,133.32Z" fill="#d1d3d4"></path><line x1="98.15" y1="96.15" x2="92.05" y2="139.63" fill="#d1d3d4"></line><path d="M92.05,140.13H92a.5.5,0,0,1-.43-.56l6.11-43.48a.5.5,0,0,1,1,.14L92.54,139.7A.5.5,0,0,1,92.05,140.13Z" fill="#d1d3d4"></path><path d="M101.77,93.78h0a.46.46,0,0,1-.45-.46c0-.08.1-8,.51-15.87C102.67,61.18,104,61.07,104.7,61h0c2.63,0,4.6,18.68,5.54,29.86a.46.46,0,1,1-.91.08c-1.16-13.79-3.21-28.42-4.65-29-1.32.78-2.33,16.58-2.5,31.41A.46.46,0,0,1,101.77,93.78Z" fill="#231f20"></path><path d="M201,81.83s10.92,22.53,21.49,27.33a131.83,131.83,0,0,0,25,8.65c6.16,1.43,9.37,10.18,9.37,11.94s-3.36,3.19-5.52,1.75-6.73-5.29-6.73-5.29.72,6-1.44,4.81-3.12-7.21-3.12-7.21-10.43,1-17.23-2.16-20.48-9.85-27.21-18" fill="#fff"></path><path d="M253.31,132.54a4.12,4.12,0,0,1-2.3-.66c-1.61-1.08-4.49-3.43-5.92-4.61.09,1.44,0,3.57-.87,4.18a1.2,1.2,0,0,1-1.34,0c-2-1.13-3-5.64-3.28-7.12-2,.15-10.91.59-17-2.23-13.28-6.11-22.49-12.22-27.37-18.14a.47.47,0,0,1,.06-.65.46.46,0,0,1,.64.06c4.8,5.83,13.9,11.85,27.05,17.9,6.61,3,16.89,2.13,17,2.12a.46.46,0,0,1,.5.38c.26,1.61,1.28,6,2.89,6.88.18.1.31.12.39.07.5-.34.6-2.56.38-4.42a.45.45,0,0,1,.74-.41s4.57,3.85,6.69,5.26a3.67,3.67,0,0,0,3.67,0,1.81,1.81,0,0,0,1.14-1.41c0-1.53-3.13-10.13-9-11.5a133.74,133.74,0,0,1-25.07-8.67C211.66,104.76,201,83,200.54,82a.45.45,0,0,1,.21-.61.46.46,0,0,1,.61.21c.11.23,11,22.43,21.27,27.11a131.74,131.74,0,0,0,24.9,8.62c6.48,1.51,9.72,10.45,9.72,12.39a2.7,2.7,0,0,1-1.63,2.22A5,5,0,0,1,253.31,132.54Z" fill="#231f20"></path><path d="M120.43,184.51l-11.93,15L81.67,176.38s-14.91,14.11-12.78,14.93,10.22,0,10.22,0,32,34,37.06,30.83,28.54-33.84,28.54-33.84" fill="#fff"></path><path d="M115.35,222.84c-1.85,0-6.53-2-19.94-14.59-7.88-7.41-15.32-15.24-16.48-16.46-1.35.13-8.18.73-10.21,0a.75.75,0,0,1-.48-.57c-.42-2.12,9.93-12.11,13.11-15.13a.46.46,0,0,1,.61,0l26.48,22.78,11.63-14.59a.46.46,0,0,1,.64-.07.45.45,0,0,1,.07.64l-11.92,15a.48.48,0,0,1-.32.17.53.53,0,0,1-.34-.11L81.68,177c-6.22,5.92-12.46,12.58-12.54,13.93,1.77.59,7.74.16,9.92-.06a.46.46,0,0,1,.38.14c12.26,13,33,32.92,36.49,30.75,5-3.09,28.18-33.42,28.41-33.72a.46.46,0,0,1,.73.55c-1,1.25-23.54,30.77-28.66,33.95A1.84,1.84,0,0,1,115.35,222.84Z" fill="#231f20"></path><path d="M193.84,194.35l.51,56.48s18.43,4.26,16.3,5.11-31.2,0-31.2,0l-6.75-70.56" fill="#fff"></path><path d="M201.35,256.78c-8.56,0-20-.32-21.91-.38A.45.45,0,0,1,179,256l-6.75-70.57a.47.47,0,0,1,.41-.5.46.46,0,0,1,.5.41l6.71,70.17c10.81.31,26.63.57,30,.13-2-.92-9.08-2.83-15.68-4.35a.46.46,0,0,1-.35-.44l-.51-56.48a.46.46,0,0,1,.46-.46h0a.46.46,0,0,1,.46.45l.5,56.12c16.37,3.79,16.45,4.9,16.48,5.26a.63.63,0,0,1-.46.64C210.05,256.68,206.15,256.78,201.35,256.78Zm9.07-.84h0Z" fill="#231f20"></path><path d="M166.24,77.91c-10.27,8.42-11.86,27.9-13.79,42.46l48.08,9.38s6.41-41,.42-47.92S176.51,69.49,166.24,77.91Z" fill="#68e1fd"></path><path d="M169.8,70.21q.49-.17,1-.36c-3.44.12-6.67-1.86-8.9-4.48s-3.61-5.83-5-9a12.16,12.16,0,0,0,9.8.77,12.19,12.19,0,0,1-8.86-9.26c6.27.67,12-3.27,17.06-7s11-7.39,17.69-4.83c7.27,2.77,9.48,11.35,9.79,18.36.39,9-3.39,17.38-12.41,20.5-6.05,2.1-12.78,1.35-18.82-.77a15.22,15.22,0,0,1-5.47-3A23,23,0,0,0,169.8,70.21Z" fill="#fff"></path><path d="M182.26,76.62a34.69,34.69,0,0,1-11.23-2,15.79,15.79,0,0,1-5.63-3.07.46.46,0,0,1-.13-.47.47.47,0,0,1,.37-.32,20.88,20.88,0,0,0,2.93-.61,12.83,12.83,0,0,1-7-4.44c-2.29-2.69-3.68-6-5-9.11a.45.45,0,0,1,.11-.51.47.47,0,0,1,.53-.07,11.73,11.73,0,0,0,8,1.15A12.65,12.65,0,0,1,157.42,48a.46.46,0,0,1,.11-.4.47.47,0,0,1,.39-.14c6,.63,11.31-2.92,16.74-6.93,5.09-3.77,11.11-7.56,18.12-4.89,8.2,3.13,9.84,13.1,10.08,18.77.45,10.21-4.3,18-12.71,21A23.9,23.9,0,0,1,182.26,76.62Zm-15.49-5.15a16.63,16.63,0,0,0,4.56,2.24c4.7,1.65,11.74,3.12,18.52.77,8-2.77,12.53-10.27,12.1-20.05-.24-5.45-1.79-15-9.49-18-6.58-2.51-12.36,1.14-17.26,4.76-5.18,3.83-10.73,7.51-16.75,7.16a11.89,11.89,0,0,0,8.39,8.31.46.46,0,0,1,.35.42.45.45,0,0,1-.3.45,12.69,12.69,0,0,1-9.06-.26,30.24,30.24,0,0,0,4.41,7.76c2.39,2.8,5.58,4.41,8.53,4.32a.47.47,0,0,1,.47.36.47.47,0,0,1-.29.52l-1,.37h0A24.73,24.73,0,0,1,166.77,71.47Z" fill="#231f20"></path><path d="M191.76,68.66l.05,9.12s-.92,5.09-6.47,3.54A11.47,11.47,0,0,1,178,74.78L178.61,59a28.74,28.74,0,0,0,.91-8.47c6.74-.1,12-5.19,12-5.19s2.32,3.48,3.32,4.58A13.58,13.58,0,0,1,197,52.67c.93,1.75.9,3.95.85,5.89a38.53,38.53,0,0,1-.68,6.86C196.25,69.72,191.76,68.66,191.76,68.66Z" fill="#fff"></path><path d="M187.31,82.07a7.73,7.73,0,0,1-2.09-.31,11.83,11.83,0,0,1-7.67-6.82.47.47,0,0,1,0-.17s.63-15.68.63-15.79a4.6,4.6,0,0,1,.16-.8,25.94,25.94,0,0,0,.75-7.64.46.46,0,0,1,.13-.32.43.43,0,0,1,.32-.14c6.49-.11,11.68-5,11.73-5.07a.46.46,0,0,1,.37-.12.43.43,0,0,1,.33.2s2.31,3.46,3.28,4.52a14.32,14.32,0,0,1,2.15,2.84c1,1.89.95,4.23.91,6.12a37.28,37.28,0,0,1-.7,6.94,4.43,4.43,0,0,1-1.91,3,5.43,5.43,0,0,1-3.45.68l.05,8.59a5.56,5.56,0,0,1-2.34,3.58A4.79,4.79,0,0,1,187.31,82.07Zm-8.87-7.36a11.12,11.12,0,0,0,7,6.17,4.86,4.86,0,0,0,4-.29,4.74,4.74,0,0,0,1.92-2.89l-.06-9a.45.45,0,0,1,.56-.44,4.94,4.94,0,0,0,3.32-.49,3.56,3.56,0,0,0,1.51-2.4,37.31,37.31,0,0,0,.68-6.78c0-1.88.09-4-.81-5.67a13.12,13.12,0,0,0-2-2.65,49.53,49.53,0,0,1-3.07-4.2c-1.35,1.16-5.86,4.68-11.5,4.95a26.36,26.36,0,0,1-.78,7.42,6.11,6.11,0,0,0-.14.62h0S179.05,59.3,178.44,74.71Z" fill="#231f20"></path><path d="M191.71,73.14a8.77,8.77,0,0,1-6.08-2.3,6.4,6.4,0,0,1-2-5,17.67,17.67,0,0,0,8.16,2.78Z" fill="#231f20"></path><path d="M191.54,73.58a9,9,0,0,1-6.23-2.44,6.81,6.81,0,0,1-2.15-5.32.44.44,0,0,1,.26-.34.42.42,0,0,1,.42,0s3.95,2.61,7.93,2.7a.44.44,0,0,1,.43.45l0,4.47a.45.45,0,0,1-.42.44Zm.17-.44ZM184,66.67a6.4,6.4,0,0,0,1.9,3.86,8.09,8.09,0,0,0,5.33,2.16l0-3.61A17.72,17.72,0,0,1,184,66.67Z" fill="#231f20"></path><path d="M189.94,61.57a6.12,6.12,0,0,1-1.4-.18.44.44,0,0,1,.22-.86c.55.14,1.82.3,2.21-.13.15-.39-.91-2.55-2.28-4.59a.45.45,0,0,1,.13-.62.44.44,0,0,1,.61.13c1.43,2.13,3,4.84,2.19,5.68A2.26,2.26,0,0,1,189.94,61.57Z" fill="#231f20"></path><path d="M181.65,54.32a8.73,8.73,0,0,0-1.7-3.09,2.93,2.93,0,0,0-3.23-.78c-1.18.58-1.57,2.07-1.57,3.38a14.29,14.29,0,0,0,.8,4.37,5.07,5.07,0,0,0,1.25,2.27,2,2,0,0,0,2.41.34" fill="#fff"></path><path d="M178.72,61.53a2.82,2.82,0,0,1-1.83-.72,5.45,5.45,0,0,1-1.37-2.47,14.46,14.46,0,0,1-.82-4.51c0-.87.17-3,1.82-3.79a3.38,3.38,0,0,1,3.75.87,9.06,9.06,0,0,1,1.81,3.25.46.46,0,0,1-.85.33,8.45,8.45,0,0,0-1.6-2.93,2.51,2.51,0,0,0-2.71-.7c-1.22.6-1.31,2.42-1.31,3a13.78,13.78,0,0,0,.77,4.22,4.59,4.59,0,0,0,1.13,2.08,1.57,1.57,0,0,0,1.84.31.45.45,0,0,1,.63.11.45.45,0,0,1-.12.64A2,2,0,0,1,178.72,61.53Z" fill="#231f20"></path><path d="M177.79,84.22c.72-4.3-.51-8.33-5.79-8.71-7.92-.56-16,6-23,9.1-2.46,1.07-13,7.28-15.76,5.64-1.47-.88-2.46-3.61-3.24-5-1.73-3.2-3.34-6.47-4.94-9.74-3.3-6.78-5.92-13.34-10.9-19.1-1-1.18-2.1-2.33-3.24-3.4A24.51,24.51,0,0,0,100,46.72a.93.93,0,0,0-.75.05c-.47.34,0,1.07.5,1.41l5.7,4.06a21.18,21.18,0,0,0-5.17-2.94c-.86-.34-3.51-1.77-4.28-.82-1.09,1.33,1.75,2.1,2.42,2.54,1.58,1,3.09,2.16,4.7,3.1a28.71,28.71,0,0,0-6.56-2.83c-1.09-.32-2.71-.25-2.85.88-.09.74.6,1.31,1.21,1.74l4.87,3.34c-1.35-.93-3.46,1.33-3.8,2.45a5.56,5.56,0,0,0,1.31,5.18,2.63,2.63,0,0,0,1.07.73,1.26,1.26,0,0,0,1.23-.22c1.31-1.22-.48-3.72,1.74-4.54A2,2,0,0,1,103.71,62a2.75,2.75,0,0,1-.43,2.72c-.48.62-1.21,1.19-1.12,2a1.47,1.47,0,0,0,.8,1.06,2.51,2.51,0,0,0,3.4-1.19c.24-.6.48-1.48,1.12-1.39a1.14,1.14,0,0,1,.59.38c.87.85,5.14,16.42,6.27,21.56,1.55,7.09,4.39,22.3,13.6,23.44a6.36,6.36,0,0,0,.87.06c8.61,0,17.15-3.08,24.9-6.54,6.45-2.88,13.94-5.43,19.25-10.23A18,18,0,0,0,177.79,84.22Z" fill="#fff"></path><path d="M129,111h-.17c-.31,0-.62,0-.92-.06-9.11-1.14-12.14-15.21-13.77-22.77l-.23-1c-1.2-5.49-5.35-20.39-6.15-21.33a.77.77,0,0,0-.32-.24c-.21,0-.41.5-.54.86l-.1.24a3,3,0,0,1-4,1.42,1.93,1.93,0,0,1-1-1.41,2.53,2.53,0,0,1,.88-1.89l.33-.4a2.29,2.29,0,0,0,.38-2.26,1.54,1.54,0,0,0-1.81-.87c-.9.33-.93.95-.91,2a2.94,2.94,0,0,1-.68,2.42,1.72,1.72,0,0,1-1.68.33A3.06,3.06,0,0,1,97,65.19a6,6,0,0,1-1.42-5.63,5.36,5.36,0,0,1,2.69-2.82l-3.58-2.46c-.71-.49-1.52-1.18-1.4-2.17A1.47,1.47,0,0,1,93.91,51a3.59,3.59,0,0,1,2.76-.19l1,.3-.09,0c-.91-.41-2-.91-2.25-1.78a1.32,1.32,0,0,1,.32-1.14c.74-.89,2.31-.39,3.6.16a1.8,1.8,0,0,1-.64-1.21A.89.89,0,0,1,99,46.4a1.34,1.34,0,0,1,1.11-.12,24.65,24.65,0,0,1,11.12,6.35c1.07,1,2.14,2.13,3.28,3.44,4.15,4.81,6.65,10.09,9.29,15.69.55,1.16,1.1,2.33,1.67,3.51,1.53,3.13,3.17,6.46,4.94,9.73.18.33.37.73.57,1.16.66,1.37,1.48,3.09,2.5,3.7,2,1.17,9.39-2.65,13-4.49,1-.54,1.87-1,2.38-1.18,2-.89,4.14-2.07,6.37-3.32,5.48-3.06,11.14-6.22,16.87-5.81a6.62,6.62,0,0,1,5,2.33c1.28,1.62,1.7,4,1.22,6.91h0a18.39,18.39,0,0,1-5,9.83c-4.33,3.93-10,6.33-15.52,8.66q-2,.83-3.84,1.65C146.6,107.7,137.94,111,129,111Zm-21.6-46.36h.17a1.6,1.6,0,0,1,.84.5c1,1,5.45,17.49,6.39,21.79l.23,1c1.58,7.34,4.53,21,13,22a6.37,6.37,0,0,0,1,0c8.78,0,17.33-3.28,24.55-6.5,1.25-.56,2.54-1.11,3.85-1.66,5.43-2.3,11.05-4.68,15.27-8.49a17.69,17.69,0,0,0,4.69-9.31h0c.31-1.84.37-4.41-1-6.19A5.77,5.77,0,0,0,172,76c-5.45-.39-11,2.71-16.36,5.7-2.25,1.26-4.38,2.45-6.46,3.35-.48.21-1.29.63-2.32,1.16C141,89.17,135.2,92,133,90.65c-1.26-.76-2.14-2.61-2.85-4.1-.2-.42-.38-.8-.56-1.12-1.77-3.28-3.42-6.62-4.95-9.76-.57-1.18-1.13-2.36-1.68-3.52-2.61-5.54-5.08-10.77-9.16-15.48a44.19,44.19,0,0,0-3.2-3.37,23.81,23.81,0,0,0-10.7-6.13c-.29-.07-.36,0-.38,0a1.13,1.13,0,0,0,.5.67l4.39,3.12c.45.3.89.61,1.32,1a.45.45,0,0,1,.09.63.46.46,0,0,1-.63.1l-1.3-.92a21.55,21.55,0,0,0-3.78-2l-.54-.23c-.76-.34-2.79-1.25-3.22-.72-.17.21-.15.32-.14.35.1.43,1.16.9,1.73,1.15a7.11,7.11,0,0,1,.73.36c.62.4,1.23.82,1.84,1.24.9.62,1.84,1.27,2.8,1.83l0,0a.46.46,0,0,1,.16.62.47.47,0,0,1-.63.17h0l0,0a28.4,28.4,0,0,0-6.41-2.76,2.73,2.73,0,0,0-2,.08.52.52,0,0,0-.26.42c-.07.5.54,1,1,1.3L100,56.87h0a.46.46,0,0,1,.12.64.45.45,0,0,1-.63.12h0a.92.92,0,0,0-.89-.06,4.45,4.45,0,0,0-2.22,2.26,5.13,5.13,0,0,0,1.22,4.73,2,2,0,0,0,.87.61.81.81,0,0,0,.78-.12c.42-.39.4-1,.39-1.73,0-1,0-2.32,1.51-2.9a2.45,2.45,0,0,1,3,1.36,3.2,3.2,0,0,1-.48,3.19l-.37.44c-.36.41-.7.8-.66,1.19a1,1,0,0,0,.58.71,2,2,0,0,0,2.74-1l.09-.23C106.25,65.54,106.58,64.67,107.38,64.67Zm70.41,19.55h0Z" fill="#231f20"></path><path d="M152.13,120s-10.65,11.84-44.32,65.3c0,0,59,20.49,91.59,19.76l.82-75.33Z" fill="#231f20"></path><path d="M197.69,205.54c-32.6,0-89.45-19.6-90-19.8a.51.51,0,0,1-.27-.27.43.43,0,0,1,0-.38c33.31-52.89,44.26-65.24,44.37-65.36a.43.43,0,0,1,.41-.14l48.09,9.72a.46.46,0,0,1,.35.44l-.82,75.33a.44.44,0,0,1-.43.44Zm-89.21-20.46c5.91,2,60,20.07,90.49,19.56l.8-74.53L152.3,120.5C150.83,122.22,139.33,136.14,108.48,185.08Z" fill="#231f20"></path><path d="M179.25,253.25c0,.14,15.56,0,15.56,0s1.8-3.49,3.12-3.61,16.28,4.24,16.19,6.68S178,259.13,178,259.13Z" fill="#231f20"></path><path d="M178,259.57a.44.44,0,0,1-.34-.16.45.45,0,0,1-.09-.37l1.26-5.88a.44.44,0,0,1,.46-.35l.11,0c.79.08,9.34,0,15.15,0,.51-.94,2-3.49,3.35-3.61s13.27,3.29,16,5.91a1.69,1.69,0,0,1,.64,1.23c0,.72-.08,1.93-18.52,2.74-8.93.39-17.95.49-18,.49Zm1.62-5.88-1.07,5c16.4-.18,34.15-1.09,35.16-2.45a3.1,3.1,0,0,0-.39-.48c-2.52-2.4-14.3-5.78-15.34-5.67-.75.07-2.07,2-2.77,3.37a.44.44,0,0,1-.39.24C184.65,253.78,181,253.82,179.61,253.69Z" fill="#231f20"></path><path d="M84.93,178l-10.8,11.29,2,3.61s-12.25,4.81-13.93,2.89,18-21.51,18-21.51Z" fill="#231f20"></path><path d="M63.89,196.63a2.65,2.65,0,0,1-2-.58c-.45-.52-1.31-1.5,8.39-12.06,4.66-5.09,9.6-10,9.65-10.05a.43.43,0,0,1,.58,0l4.68,3.72a.44.44,0,0,1,.17.31.46.46,0,0,1-.12.34L74.67,189.33l1.88,3.32a.45.45,0,0,1,0,.36.44.44,0,0,1-.25.27C74.65,193.93,67.57,196.63,63.89,196.63Zm16.39-21.79c-9.13,9.11-18.19,19.25-17.7,20.65,1,1.11,8-1,13-2.85l-1.79-3.16a.44.44,0,0,1,.07-.52L84.28,178Z" fill="#231f20"></path><path d="M189.48,65a3.68,3.68,0,0,1-.73-.07c-1.66-.33-3-1.77-4-4.29a.44.44,0,0,1,.83-.32c.88,2.22,2,3.48,3.35,3.74,2,.4,4-1.58,4-1.61a.45.45,0,0,1,.64.62A6.48,6.48,0,0,1,189.48,65Z" fill="#231f20"></path><path d="M187.67,53.52a.45.45,0,0,1-.42-.3c-.16-.48-.38-.74-.64-.8-.57-.11-1.42.67-1.67.95a.44.44,0,0,1-.62,0,.45.45,0,0,1,0-.63c.13-.15,1.33-1.46,2.5-1.22a1.82,1.82,0,0,1,1.31,1.37.44.44,0,0,1-.28.56A.32.32,0,0,1,187.67,53.52Z" fill="#231f20"></path><path d="M194.7,54.6a.43.43,0,0,1-.41-.29c-.12-.31-.55-1.17-1.17-1.37s-1,.77-1,.78a.45.45,0,0,1-.58.25.45.45,0,0,1-.24-.58c.24-.6,1-1.64,2.05-1.29a3.39,3.39,0,0,1,1.72,1.9.45.45,0,0,1-.27.57A.4.4,0,0,1,194.7,54.6Z" fill="#231f20"></path><path d="M168.16,117.89l-33.39-3.45S121.8,137,124.2,142.9s17.06,11.66,27.39,8.78S168.16,117.89,168.16,117.89Z" fill="#fff"></path><path d="M145.52,152.91c-9.41,0-19.66-4.75-21.74-9.84-2.46-6,10.06-27.92,10.6-28.85a.45.45,0,0,1,.44-.23l33.39,3.45a.48.48,0,0,1,.32.18.5.5,0,0,1,.08.36c-.26,1.27-6.42,31.21-16.9,34.14A23.29,23.29,0,0,1,145.52,152.91Zm-10.5-38c-1.42,2.51-12.55,22.51-10.39,27.8,2.36,5.8,16.91,11.28,26.83,8.51,9.24-2.59,15.29-29,16.15-32.95Z" fill="#231f20"></path><path d="M142.91,130.35a10.32,10.32,0,0,1-1.48-.1c-3.75-.53-6.17-3.48-7-8.51a28,28,0,0,1-.12-7.36.45.45,0,0,1,.51-.39.48.48,0,0,1,.4.52c0,.13-1.76,13.69,6.33,14.83,8.35,1.18,21.85-9.57,22-9.67a.46.46,0,1,1,.57.71C163.59,120.81,151.6,130.35,142.91,130.35Z" fill="#231f20"></path><path d="M143.42,123.25a1.28,1.28,0,0,0,0,2.56A1.28,1.28,0,0,0,143.42,123.25Z" fill="#231f20"></path><path d="M166.48,118.39a.5.5,0,0,1-.44-.25.52.52,0,0,1,.19-.69c.27-.14,26.65-15.22,31.12-38.92a.5.5,0,0,1,1,.18c-4.56,24.16-31.34,39.46-31.61,39.62A.5.5,0,0,1,166.48,118.39Z" fill="#231f20"></path></svg>